<?xml version="1.0" encoding="UTF-8" standalone="no"?>
<svg
   xmlns:dc="http://purl.org/dc/elements/1.1/"
   xmlns:cc="http://creativecommons.org/ns#"
   xmlns:rdf="http://www.w3.org/1999/02/22-rdf-syntax-ns#"
   xmlns:svg="http://www.w3.org/2000/svg"
   xmlns="http://www.w3.org/2000/svg"
   xmlns:sodipodi="http://sodipodi.sourceforge.net/DTD/sodipodi-0.dtd"
   xmlns:inkscape="http://www.inkscape.org/namespaces/inkscape"
   style="font-style:normal;font-weight:normal;font-size:12px;font-family:Dialog;color-interpolation:auto;fill:#000000;fill-opacity:1;stroke:#000000;stroke-width:1;stroke-linecap:square;stroke-linejoin:miter;stroke-miterlimit:10;stroke-dasharray:none;stroke-dashoffset:0;stroke-opacity:1;color-rendering:auto;image-rendering:auto;shape-rendering:auto;text-rendering:auto"
   width="476.04166"
   height="410.02609"
   version="1.1"
   id="svg253"
   sodipodi:docname="ceres-prgo-2.svg"
   inkscape:version="0.92.3 (2405546, 2018-03-11)">
  <metadata
     id="metadata257">
    <rdf:RDF>
      <cc:Work
         rdf:about="">
        <dc:format>image/svg+xml</dc:format>
        <dc:type
           rdf:resource="http://purl.org/dc/dcmitype/StillImage" />
      </cc:Work>
    </rdf:RDF>
  </metadata>
  <sodipodi:namedview
     pagecolor="#ffffff"
     bordercolor="#666666"
     borderopacity="1"
     objecttolerance="10"
     gridtolerance="10"
     guidetolerance="10"
     inkscape:pageopacity="0"
     inkscape:pageshadow="2"
     inkscape:window-width="894"
     inkscape:window-height="478"
     id="namedview255"
     showgrid="false"
     inkscape:zoom="0.56190476"
     inkscape:cx="248.7083"
     inkscape:cy="203.6511"
     inkscape:window-x="0"
     inkscape:window-y="55"
     inkscape:window-maximized="0"
     inkscape:current-layer="svg253" />
  <!--Generated by the Batik Graphics2D SVG Generator-->
  <defs
     id="genericDefs" />
  <g
     id="g251"
     transform="translate(-31.2917,-3.625)">
    <defs
       id="defs1">
      <clipPath
         clipPathUnits="userSpaceOnUse"
         id="clipPath1">
        <path
           d="M 0,0 H 560 V 420 H 0 Z"
           id="path3"
           inkscape:connector-curvature="0" />
      </clipPath>
    </defs>
    <g
       style="color-interpolation:linearRGB;fill:#262626;fill-opacity:0.14900004;stroke:#262626;stroke-width:0.66670001;stroke-linecap:butt;stroke-linejoin:round;stroke-opacity:0.14900004;color-rendering:optimizeQuality;image-rendering:optimizeQuality;text-rendering:geometricPrecision"
       id="g59">
      <line
         y2="52"
         style="fill:none"
         x1="76.699997"
         x2="76.699997"
         y1="374"
         id="line7" />
      <line
         y2="52"
         style="fill:none"
         x1="149.69839"
         x2="149.69839"
         y1="374"
         id="line9" />
      <line
         y2="52"
         style="fill:none"
         x1="222.69679"
         x2="222.69679"
         y1="374"
         id="line11" />
      <line
         y2="52"
         style="fill:none"
         x1="295.69519"
         x2="295.69519"
         y1="374"
         id="line13" />
      <line
         y2="52"
         style="fill:none"
         x1="368.6936"
         x2="368.6936"
         y1="374"
         id="line15" />
      <line
         y2="52"
         style="fill:none"
         x1="441.69199"
         x2="441.69199"
         y1="374"
         id="line17" />
      <line
         y2="344.6774"
         style="fill:none"
         x1="507"
         x2="73"
         y1="344.6774"
         id="line19" />
      <line
         y2="288.18549"
         style="fill:none"
         x1="507"
         x2="73"
         y1="288.18549"
         id="line21" />
      <line
         y2="231.6936"
         style="fill:none"
         x1="507"
         x2="73"
         y1="231.6936"
         id="line23" />
      <line
         y2="175.2016"
         style="fill:none"
         x1="507"
         x2="73"
         y1="175.2016"
         id="line25" />
      <line
         y2="118.7097"
         style="fill:none"
         x1="507"
         x2="73"
         y1="118.7097"
         id="line27" />
      <line
         y2="62.217701"
         style="fill:none"
         x1="507"
         x2="73"
         y1="62.217701"
         id="line29" />
      <line
         x1="73"
         x2="507"
         y1="374"
         style="fill:none;fill-opacity:1;stroke-linecap:square;stroke-opacity:1"
         y2="374"
         id="line31" />
      <line
         x1="73"
         x2="507"
         y1="52"
         style="fill:none;fill-opacity:1;stroke-linecap:square;stroke-opacity:1"
         y2="52"
         id="line33" />
      <line
         x1="76.699997"
         x2="76.699997"
         y1="374"
         style="fill:none;fill-opacity:1;stroke-linecap:square;stroke-opacity:1"
         y2="369.66"
         id="line35" />
      <line
         x1="149.69839"
         x2="149.69839"
         y1="374"
         style="fill:none;fill-opacity:1;stroke-linecap:square;stroke-opacity:1"
         y2="369.66"
         id="line37" />
      <line
         x1="222.69679"
         x2="222.69679"
         y1="374"
         style="fill:none;fill-opacity:1;stroke-linecap:square;stroke-opacity:1"
         y2="369.66"
         id="line39" />
      <line
         x1="295.69519"
         x2="295.69519"
         y1="374"
         style="fill:none;fill-opacity:1;stroke-linecap:square;stroke-opacity:1"
         y2="369.66"
         id="line41" />
      <line
         x1="368.6936"
         x2="368.6936"
         y1="374"
         style="fill:none;fill-opacity:1;stroke-linecap:square;stroke-opacity:1"
         y2="369.66"
         id="line43" />
      <line
         x1="441.69199"
         x2="441.69199"
         y1="374"
         style="fill:none;fill-opacity:1;stroke-linecap:square;stroke-opacity:1"
         y2="369.66"
         id="line45" />
      <line
         x1="76.699997"
         x2="76.699997"
         y1="52"
         style="fill:none;fill-opacity:1;stroke-linecap:square;stroke-opacity:1"
         y2="56.34"
         id="line47" />
      <line
         x1="149.69839"
         x2="149.69839"
         y1="52"
         style="fill:none;fill-opacity:1;stroke-linecap:square;stroke-opacity:1"
         y2="56.34"
         id="line49" />
      <line
         x1="222.69679"
         x2="222.69679"
         y1="52"
         style="fill:none;fill-opacity:1;stroke-linecap:square;stroke-opacity:1"
         y2="56.34"
         id="line51" />
      <line
         x1="295.69519"
         x2="295.69519"
         y1="52"
         style="fill:none;fill-opacity:1;stroke-linecap:square;stroke-opacity:1"
         y2="56.34"
         id="line53" />
      <line
         x1="368.6936"
         x2="368.6936"
         y1="52"
         style="fill:none;fill-opacity:1;stroke-linecap:square;stroke-opacity:1"
         y2="56.34"
         id="line55" />
      <line
         x1="441.69199"
         x2="441.69199"
         y1="52"
         style="fill:none;fill-opacity:1;stroke-linecap:square;stroke-opacity:1"
         y2="56.34"
         id="line57" />
    </g>
    <g
       transform="translate(76.7,379.3333)"
       style="font-size:13.33329964px;font-family:SansSerif;color-interpolation:linearRGB;fill:#262626;stroke:#262626;color-rendering:optimizeQuality;image-rendering:optimizeQuality;text-rendering:geometricPrecision"
       id="g63">
      <path
         style="stroke:none"
         d="m -10.3594,8.9219 h 3.4219 v 1.0312 h -3.4219 z m 5.7725,3 h 2.0937 V 4.6875 L -4.7744,5.1406 V 3.9844 l 2.2656,-0.4688 h 1.2969 v 8.4063 H 0.8818 V 13 H -4.5869 Z M 3.6797,3.5156 H 8.711 V 4.6094 H 4.8516 V 6.9219 Q 5.1329,6.8281 5.4141,6.7812 5.6954,6.7344 5.961,6.7344 q 1.5937,0 2.5234,0.8672 0.9297,0.8672 0.9297,2.3515 0,1.5313 -0.9531,2.3828 -0.9531,0.8516 -2.6875,0.8516 -0.5938,0 -1.2188,-0.1016 -0.625,-0.1015 -1.2812,-0.3047 v -1.2968 q 0.5781,0.3125 1.1875,0.4687 0.6094,0.1563 1.2812,0.1563 1.1094,0 1.75,-0.5782 0.6407,-0.5781 0.6407,-1.5781 0,-0.9843 -0.6407,-1.5625 -0.6406,-0.5781 -1.75,-0.5781 -0.5156,0 -1.0234,0.1172 Q 4.211,8.0469 3.6797,8.2812 Z"
         id="path61"
         inkscape:connector-curvature="0" />
    </g>
    <g
       transform="translate(149.6984,379.3333)"
       style="font-size:13.33329964px;font-family:SansSerif;color-interpolation:linearRGB;fill:#262626;stroke:#262626;color-rendering:optimizeQuality;image-rendering:optimizeQuality;text-rendering:geometricPrecision"
       id="g67">
      <path
         style="stroke:none"
         d="m -10.3594,8.9219 h 3.4219 v 1.0312 h -3.4219 z m 5.7725,3 h 2.0937 V 4.6875 L -4.7744,5.1406 V 3.9844 l 2.2656,-0.4688 h 1.2969 v 8.4063 H 0.8818 V 13 H -4.5869 Z M 6.3985,4.3594 q -0.9844,0 -1.4844,0.9765 -0.5,0.9766 -0.5,2.9297 0,1.9532 0.5,2.9297 0.5,0.9766 1.4844,0.9766 1,0 1.5,-0.9766 0.5,-0.9765 0.5,-2.9297 0,-1.9531 -0.5,-2.9297 -0.5,-0.9765 -1.5,-0.9765 z m 0,-1.0156 q 1.5937,0 2.4375,1.2656 0.8437,1.2656 0.8437,3.6562 0,2.3906 -0.8437,3.6563 -0.8438,1.2656 -2.4375,1.2656 -1.5781,0 -2.4219,-1.2656 Q 3.1329,10.6562 3.1329,8.2656 3.1329,5.875 3.9766,4.6094 4.8204,3.3438 6.3985,3.3438 Z"
         id="path65"
         inkscape:connector-curvature="0" />
    </g>
    <g
       transform="translate(222.6968,379.3333)"
       style="font-size:13.33329964px;font-family:SansSerif;color-interpolation:linearRGB;fill:#262626;stroke:#262626;color-rendering:optimizeQuality;image-rendering:optimizeQuality;text-rendering:geometricPrecision"
       id="g71">
      <path
         style="stroke:none"
         d="m -6.3594,8.9219 h 3.4219 V 9.9531 H -6.3594 Z M -0.7901,3.5156 H 4.2412 V 4.6094 H 0.3818 V 6.9219 Q 0.6631,6.8281 0.9443,6.7812 1.2256,6.7344 1.4912,6.7344 q 1.5937,0 2.5234,0.8672 0.9297,0.8672 0.9297,2.3515 0,1.5313 -0.9531,2.3828 -0.9531,0.8516 -2.6875,0.8516 -0.5938,0 -1.2188,-0.1016 -0.625,-0.1015 -1.2812,-0.3047 v -1.2968 q 0.5781,0.3125 1.1875,0.4687 0.6094,0.1563 1.2812,0.1563 1.1094,0 1.75,-0.5782 0.6407,-0.5781 0.6407,-1.5781 0,-0.9843 -0.6407,-1.5625 -0.6406,-0.5781 -1.75,-0.5781 -0.5156,0 -1.0234,0.1172 -0.5078,0.1172 -1.0391,0.3515 z"
         id="path69"
         inkscape:connector-curvature="0" />
    </g>
    <g
       transform="translate(295.6952,379.3333)"
       style="font-size:13.33329964px;font-family:SansSerif;color-interpolation:linearRGB;fill:#262626;stroke:#262626;color-rendering:optimizeQuality;image-rendering:optimizeQuality;text-rendering:geometricPrecision"
       id="g75">
      <path
         style="stroke:none"
         d="m -0.375,4.3594 q -0.9844,0 -1.4844,0.9765 -0.5,0.9766 -0.5,2.9297 0,1.9532 0.5,2.9297 0.5,0.9766 1.4844,0.9766 1,0 1.5,-0.9766 0.5,-0.9765 0.5,-2.9297 0,-1.9531 -0.5,-2.9297 -0.5,-0.9765 -1.5,-0.9765 z m 0,-1.0156 q 1.5938,0 2.4375,1.2656 0.8437,1.2656 0.8437,3.6562 0,2.3906 -0.8437,3.6563 -0.8437,1.2656 -2.4375,1.2656 -1.5781,0 -2.4219,-1.2656 -0.8437,-1.2657 -0.8437,-3.6563 0,-2.3906 0.8437,-3.6562 0.8438,-1.2656 2.4219,-1.2656 z"
         id="path73"
         inkscape:connector-curvature="0" />
    </g>
    <g
       transform="translate(368.6936,379.3333)"
       style="font-size:13.33329964px;font-family:SansSerif;color-interpolation:linearRGB;fill:#262626;stroke:#262626;color-rendering:optimizeQuality;image-rendering:optimizeQuality;text-rendering:geometricPrecision"
       id="g79">
      <path
         style="stroke:none"
         d="m -3.0938,3.5156 h 5.0313 v 1.0938 h -3.8594 v 2.3125 q 0.2813,-0.0938 0.5625,-0.1407 0.2813,-0.0468 0.5469,-0.0468 1.5937,0 2.5234,0.8672 0.9297,0.8672 0.9297,2.3515 0,1.5313 -0.9531,2.3828 -0.9531,0.8516 -2.6875,0.8516 -0.5938,0 -1.2188,-0.1016 -0.625,-0.1015 -1.2812,-0.3047 v -1.2968 q 0.5781,0.3125 1.1875,0.4687 0.6094,0.1563 1.2813,0.1563 1.1093,0 1.75,-0.5782 0.6406,-0.5781 0.6406,-1.5781 0,-0.9843 -0.6406,-1.5625 -0.6407,-0.5781 -1.75,-0.5781 -0.5157,0 -1.0235,0.1172 -0.5078,0.1172 -1.0391,0.3515 z"
         id="path77"
         inkscape:connector-curvature="0" />
    </g>
    <g
       transform="translate(441.692,379.3333)"
       style="font-size:13.33329964px;font-family:SansSerif;color-interpolation:linearRGB;fill:#262626;stroke:#262626;color-rendering:optimizeQuality;image-rendering:optimizeQuality;text-rendering:geometricPrecision"
       id="g83">
      <path
         style="stroke:none"
         d="m -6.8906,11.9219 h 2.0937 V 4.6875 L -7.0781,5.1406 V 3.9844 l 2.2656,-0.4688 h 1.2969 v 8.4063 h 2.0937 V 13 H -6.8906 Z M 4.0948,4.3594 q -0.9844,0 -1.4844,0.9765 -0.5,0.9766 -0.5,2.9297 0,1.9532 0.5,2.9297 0.5,0.9766 1.4844,0.9766 1,0 1.5,-0.9766 0.5,-0.9765 0.5,-2.9297 0,-1.9531 -0.5,-2.9297 -0.5,-0.9765 -1.5,-0.9765 z m 0,-1.0156 q 1.5938,0 2.4375,1.2656 0.8438,1.2656 0.8438,3.6562 0,2.3906 -0.8438,3.6563 -0.8437,1.2656 -2.4375,1.2656 -1.5781,0 -2.4219,-1.2656 Q 0.8292,10.6562 0.8292,8.2656 0.8292,5.875 1.6729,4.6094 2.5167,3.3438 4.0948,3.3438 Z"
         id="path81"
         inkscape:connector-curvature="0" />
    </g>
    <g
       transform="translate(290.0002,397.6667)"
       style="font-size:14.66670036px;font-family:SansSerif;color-interpolation:linearRGB;fill:#262626;stroke:#262626;color-rendering:optimizeQuality;image-rendering:optimizeQuality;text-rendering:geometricPrecision"
       id="g87">
      <path
         style="stroke:none"
         d="m -11.7656,5.7969 -2.9688,3.9843 3.125,4.2188 h -1.5937 L -15.5938,10.7812 -17.9844,14 h -1.5781 l 3.1875,-4.2969 -2.9219,-3.9062 h 1.5938 l 2.1719,2.9219 2.1718,-2.9219 z M -2.0114,2.625 q -0.9844,1.6719 -1.461,3.3203 -0.4765,1.6485 -0.4765,3.3516 0,1.6875 0.4765,3.3437 0.4766,1.6563 1.461,3.3438 H -3.1833 Q -4.2927,14.25 -4.8317,12.5938 -5.3708,10.9375 -5.3708,9.2969 -5.3708,7.6562 -4.8317,6 -4.2927,4.3438 -3.1833,2.625 Z m 8.8585,4.75 Q 7.3628,6.4688 8.0659,6.0312 8.769,5.5938 9.7221,5.5938 q 1.2813,0 1.9766,0.8984 0.6953,0.8984 0.6953,2.5547 V 14 H 11.0346 V 9.0938 q 0,-1.1876 -0.4218,-1.7579 Q 10.1909,6.7656 9.3471,6.7656 8.3003,6.7656 7.6909,7.4609 7.0815,8.1562 7.0815,9.3594 V 14 H 5.7221 V 9.0938 q 0,-1.1876 -0.414,-1.7579 Q 4.894,6.7656 4.019,6.7656 2.9878,6.7656 2.3784,7.4688 1.769,8.1719 1.769,9.3594 V 14 H 0.4096 V 5.7969 H 1.769 V 7.0781 Q 2.2221,6.3125 2.8706,5.9531 3.519,5.5938 4.4096,5.5938 q 0.8907,0 1.5157,0.4531 Q 6.5503,6.5 6.8471,7.375 Z m 7.6832,-4.75 h 1.1719 Q 16.796,4.3438 17.3428,6 q 0.5469,1.6562 0.5469,3.2969 0,1.6406 -0.5469,3.2969 -0.5468,1.6562 -1.6406,3.3906 h -1.1719 q 0.9688,-1.6875 1.4532,-3.3438 0.4843,-1.6562 0.4843,-3.3437 0,-1.7031 -0.4843,-3.3516 Q 15.4991,4.2969 14.5303,2.625 Z"
         id="path85"
         inkscape:connector-curvature="0" />
    </g>
    <g
       style="color-interpolation:linearRGB;fill:#262626;stroke:#262626;stroke-width:0.66670001;stroke-linejoin:round;color-rendering:optimizeQuality;image-rendering:optimizeQuality;text-rendering:geometricPrecision"
       id="g117">
      <line
         y2="52"
         style="fill:none"
         x1="73"
         x2="73"
         y1="374"
         id="line89" />
      <line
         y2="52"
         style="fill:none"
         x1="507"
         x2="507"
         y1="374"
         id="line91" />
      <line
         y2="344.6774"
         style="fill:none"
         x1="73"
         x2="77.339996"
         y1="344.6774"
         id="line93" />
      <line
         y2="288.18549"
         style="fill:none"
         x1="73"
         x2="77.339996"
         y1="288.18549"
         id="line95" />
      <line
         y2="231.6936"
         style="fill:none"
         x1="73"
         x2="77.339996"
         y1="231.6936"
         id="line97" />
      <line
         y2="175.2016"
         style="fill:none"
         x1="73"
         x2="77.339996"
         y1="175.2016"
         id="line99" />
      <line
         y2="118.7097"
         style="fill:none"
         x1="73"
         x2="77.339996"
         y1="118.7097"
         id="line101" />
      <line
         y2="62.217701"
         style="fill:none"
         x1="73"
         x2="77.339996"
         y1="62.217701"
         id="line103" />
      <line
         y2="344.6774"
         style="fill:none"
         x1="507"
         x2="502.66"
         y1="344.6774"
         id="line105" />
      <line
         y2="288.18549"
         style="fill:none"
         x1="507"
         x2="502.66"
         y1="288.18549"
         id="line107" />
      <line
         y2="231.6936"
         style="fill:none"
         x1="507"
         x2="502.66"
         y1="231.6936"
         id="line109" />
      <line
         y2="175.2016"
         style="fill:none"
         x1="507"
         x2="502.66"
         y1="175.2016"
         id="line111" />
      <line
         y2="118.7097"
         style="fill:none"
         x1="507"
         x2="502.66"
         y1="118.7097"
         id="line113" />
      <line
         y2="62.217701"
         style="fill:none"
         x1="507"
         x2="502.66"
         y1="62.217701"
         id="line115" />
    </g>
    <g
       transform="translate(67.6667,344.6774)"
       style="font-size:13.33329964px;font-family:SansSerif;color-interpolation:linearRGB;fill:#262626;stroke:#262626;color-rendering:optimizeQuality;image-rendering:optimizeQuality;text-rendering:geometricPrecision"
       id="g121">
      <path
         style="stroke:none"
         d="m -4.875,-4.1406 q -0.9844,0 -1.4844,0.9765 -0.5,0.9766 -0.5,2.9297 0,1.9532 0.5,2.9297 0.5,0.9766 1.4844,0.9766 1,0 1.5,-0.9766 0.5,-0.9765 0.5,-2.9297 0,-1.9531 -0.5,-2.9297 -0.5,-0.9765 -1.5,-0.9765 z m 0,-1.0156 q 1.5938,0 2.4375,1.2656 0.8437,1.2656 0.8437,3.6562 0,2.3906 -0.8437,3.6563 -0.8437,1.2656 -2.4375,1.2656 -1.5781,0 -2.4219,-1.2656 -0.8437,-1.2657 -0.8437,-3.6563 0,-2.3906 0.8437,-3.6562 0.8438,-1.2656 2.4219,-1.2656 z"
         id="path119"
         inkscape:connector-curvature="0" />
    </g>
    <g
       transform="translate(67.6667,288.1855)"
       style="font-size:13.33329964px;font-family:SansSerif;color-interpolation:linearRGB;fill:#262626;stroke:#262626;color-rendering:optimizeQuality;image-rendering:optimizeQuality;text-rendering:geometricPrecision"
       id="g125">
      <path
         style="stroke:none"
         d="m -7.5938,-4.9844 h 5.0313 v 1.0938 h -3.8594 v 2.3125 q 0.2813,-0.0938 0.5625,-0.1407 0.2813,-0.0468 0.5469,-0.0468 1.5937,0 2.5234,0.8672 0.9297,0.8672 0.9297,2.3515 0,1.5313 -0.9531,2.3828 -0.9531,0.8516 -2.6875,0.8516 -0.5938,0 -1.2188,-0.1016 Q -7.3438,4.4844 -8,4.2812 V 2.9844 q 0.5781,0.3125 1.1875,0.4687 0.6094,0.1563 1.2813,0.1563 1.1093,0 1.75,-0.5782 0.6406,-0.5781 0.6406,-1.5781 0,-0.9843 -0.6406,-1.5625 -0.6407,-0.5781 -1.75,-0.5781 -0.5157,0 -1.0235,0.1172 -0.5078,0.1172 -1.0391,0.3515 z"
         id="path123"
         inkscape:connector-curvature="0" />
    </g>
    <g
       transform="translate(67.6667,231.6936)"
       style="font-size:13.33329964px;font-family:SansSerif;color-interpolation:linearRGB;fill:#262626;stroke:#262626;color-rendering:optimizeQuality;image-rendering:optimizeQuality;text-rendering:geometricPrecision"
       id="g129">
      <path
         style="stroke:none"
         d="m -15.3906,3.4219 h 2.0937 v -7.2344 l -2.2812,0.4531 v -1.1562 l 2.2656,-0.4688 h 1.2969 v 8.4063 h 2.0937 V 4.5 h -5.4687 z m 10.9854,-7.5625 q -0.9844,0 -1.4844,0.9765 -0.5,0.9766 -0.5,2.9297 0,1.9532 0.5,2.9297 0.5,0.9766 1.4844,0.9766 1,0 1.5,-0.9766 0.5,-0.9765 0.5,-2.9297 0,-1.9531 -0.5,-2.9297 -0.5,-0.9765 -1.5,-0.9765 z m 0,-1.0156 q 1.5938,0 2.4375,1.2656 0.8438,1.2656 0.8438,3.6562 0,2.3906 -0.8438,3.6563 -0.8437,1.2656 -2.4375,1.2656 -1.5781,0 -2.4219,-1.2656 -0.8437,-1.2657 -0.8437,-3.6563 0,-2.3906 0.8437,-3.6562 0.8438,-1.2656 2.4219,-1.2656 z"
         id="path127"
         inkscape:connector-curvature="0" />
    </g>
    <g
       transform="translate(67.6667,175.2016)"
       style="font-size:13.33329964px;font-family:SansSerif;color-interpolation:linearRGB;fill:#262626;stroke:#262626;color-rendering:optimizeQuality;image-rendering:optimizeQuality;text-rendering:geometricPrecision"
       id="g133">
      <path
         style="stroke:none"
         d="m -15.3906,3.4219 h 2.0937 v -7.2344 l -2.2812,0.4531 v -1.1562 l 2.2656,-0.4688 h 1.2969 v 8.4063 h 2.0937 V 4.5 h -5.4687 z m 8.2667,-8.4063 h 5.0312 v 1.0938 h -3.8594 v 2.3125 q 0.2813,-0.0938 0.5625,-0.1407 0.2813,-0.0468 0.5469,-0.0468 1.5938,0 2.5235,0.8672 0.9296,0.8672 0.9296,2.3515 0,1.5313 -0.9531,2.3828 -0.9531,0.8516 -2.6875,0.8516 -0.5937,0 -1.2187,-0.1016 -0.625,-0.1015 -1.2813,-0.3047 V 2.9844 q 0.5781,0.3125 1.1875,0.4687 0.6094,0.1563 1.2813,0.1563 1.1093,0 1.75,-0.5782 0.6406,-0.5781 0.6406,-1.5781 0,-0.9843 -0.6406,-1.5625 -0.6407,-0.5781 -1.75,-0.5781 -0.5157,0 -1.0235,0.1172 -0.5078,0.1172 -1.039,0.3515 z"
         id="path131"
         inkscape:connector-curvature="0" />
    </g>
    <g
       transform="translate(67.6667,118.7097)"
       style="font-size:13.33329964px;font-family:SansSerif;color-interpolation:linearRGB;fill:#262626;stroke:#262626;color-rendering:optimizeQuality;image-rendering:optimizeQuality;text-rendering:geometricPrecision"
       id="g137">
      <path
         style="stroke:none"
         d="m -14.5,3.4219 h 4.4688 V 4.5 h -6.0157 V 3.4219 q 0.7344,-0.75 1.9922,-2.0235 1.2578,-1.2734 1.5859,-1.6484 0.6094,-0.6875 0.8516,-1.1719 0.2422,-0.4843 0.2422,-0.9375 0,-0.7656 -0.5234,-1.2344 -0.5235,-0.4687 -1.3828,-0.4687 -0.6094,0 -1.2735,0.2031 -0.6641,0.2032 -1.4297,0.6406 v -1.2968 q 0.7813,-0.3125 1.4532,-0.4766 0.6718,-0.164 1.2187,-0.164 1.4844,0 2.3594,0.7421 0.875,0.7422 0.875,1.9766 0,0.5781 -0.2188,1.1016 -0.2187,0.5234 -0.7969,1.2265 -0.1562,0.1875 -1.0078,1.0703 -0.8515,0.8829 -2.3984,2.461 z m 10.0948,-7.5625 q -0.9844,0 -1.4844,0.9765 -0.5,0.9766 -0.5,2.9297 0,1.9532 0.5,2.9297 0.5,0.9766 1.4844,0.9766 1,0 1.5,-0.9766 0.5,-0.9765 0.5,-2.9297 0,-1.9531 -0.5,-2.9297 -0.5,-0.9765 -1.5,-0.9765 z m 0,-1.0156 q 1.5938,0 2.4375,1.2656 0.8438,1.2656 0.8438,3.6562 0,2.3906 -0.8438,3.6563 -0.8437,1.2656 -2.4375,1.2656 -1.5781,0 -2.4219,-1.2656 -0.8437,-1.2657 -0.8437,-3.6563 0,-2.3906 0.8437,-3.6562 0.8438,-1.2656 2.4219,-1.2656 z"
         id="path135"
         inkscape:connector-curvature="0" />
    </g>
    <g
       transform="translate(67.6667,62.2177)"
       style="font-size:13.33329964px;font-family:SansSerif;color-interpolation:linearRGB;fill:#262626;stroke:#262626;color-rendering:optimizeQuality;image-rendering:optimizeQuality;text-rendering:geometricPrecision"
       id="g141">
      <path
         style="stroke:none"
         d="m -14.5,3.4219 h 4.4688 V 4.5 h -6.0157 V 3.4219 q 0.7344,-0.75 1.9922,-2.0235 1.2578,-1.2734 1.5859,-1.6484 0.6094,-0.6875 0.8516,-1.1719 0.2422,-0.4843 0.2422,-0.9375 0,-0.7656 -0.5234,-1.2344 -0.5235,-0.4687 -1.3828,-0.4687 -0.6094,0 -1.2735,0.2031 -0.6641,0.2032 -1.4297,0.6406 v -1.2968 q 0.7813,-0.3125 1.4532,-0.4766 0.6718,-0.164 1.2187,-0.164 1.4844,0 2.3594,0.7421 0.875,0.7422 0.875,1.9766 0,0.5781 -0.2188,1.1016 -0.2187,0.5234 -0.7969,1.2265 -0.1562,0.1875 -1.0078,1.0703 -0.8515,0.8829 -2.3984,2.461 z m 7.3761,-8.4063 h 5.0312 v 1.0938 h -3.8594 v 2.3125 q 0.2813,-0.0938 0.5625,-0.1407 0.2813,-0.0468 0.5469,-0.0468 1.5938,0 2.5235,0.8672 0.9296,0.8672 0.9296,2.3515 0,1.5313 -0.9531,2.3828 -0.9531,0.8516 -2.6875,0.8516 -0.5937,0 -1.2187,-0.1016 -0.625,-0.1015 -1.2813,-0.3047 V 2.9844 q 0.5781,0.3125 1.1875,0.4687 0.6094,0.1563 1.2813,0.1563 1.1093,0 1.75,-0.5782 0.6406,-0.5781 0.6406,-1.5781 0,-0.9843 -0.6406,-1.5625 -0.6407,-0.5781 -1.75,-0.5781 -0.5157,0 -1.0235,0.1172 -0.5078,0.1172 -1.039,0.3515 z"
         id="path139"
         inkscape:connector-curvature="0" />
    </g>
    <g
       transform="rotate(-90,129.83325,83.16655)"
       style="font-size:14.66670036px;font-family:SansSerif;color-interpolation:linearRGB;fill:#262626;stroke:#262626;color-rendering:optimizeQuality;image-rendering:optimizeQuality;text-rendering:geometricPrecision"
       id="g145">
      <path
         style="stroke:none"
         d="m -15.1719,-3.2344 q -0.5781,1.4688 -1.1172,1.9141 -0.539,0.4453 -1.4453,0.4453 h -1.0781 V -2 h 0.7969 q 0.5468,0 0.8594,-0.2656 0.3124,-0.2656 0.6718,-1.25 l 0.25,-0.6094 -3.3125,-8.0781 h 1.4219 l 2.5625,6.4219 2.5625,-6.4219 h 1.4375 z M -2.0114,-15.375 q -0.9844,1.6719 -1.461,3.3203 -0.4765,1.6485 -0.4765,3.3516 0,1.6875 0.4765,3.3437 0.4766,1.6563 1.461,3.3438 h -1.1719 q -1.1094,-1.7344 -1.6484,-3.3906 -0.5391,-1.6563 -0.5391,-3.2969 0,-1.6407 0.5391,-3.2969 0.539,-1.6562 1.6484,-3.375 z m 8.8585,4.75 q 0.5157,-0.9062 1.2188,-1.3438 0.7031,-0.4374 1.6562,-0.4374 1.2813,0 1.9766,0.8984 0.6953,0.8984 0.6953,2.5547 V -4 h -1.3594 v -4.9062 q 0,-1.1876 -0.4218,-1.7579 -0.4219,-0.5703 -1.2657,-0.5703 -1.0468,0 -1.6562,0.6953 -0.6094,0.6953 -0.6094,1.8985 V -4 H 5.7221 v -4.9062 q 0,-1.1876 -0.414,-1.7579 -0.4141,-0.5703 -1.2891,-0.5703 -1.0312,0 -1.6406,0.7032 Q 1.769,-9.8281 1.769,-8.6406 V -4 H 0.4096 v -8.2031 H 1.769 v 1.2812 q 0.4531,-0.7656 1.1016,-1.125 0.6484,-0.3593 1.539,-0.3593 0.8907,0 1.5157,0.4531 0.625,0.4531 0.9218,1.3281 z m 7.6832,-4.75 h 1.1719 q 1.0938,1.7188 1.6406,3.375 0.5469,1.6562 0.5469,3.2969 0,1.6406 -0.5469,3.2969 -0.5468,1.6562 -1.6406,3.3906 h -1.1719 q 0.9688,-1.6875 1.4532,-3.3438 0.4843,-1.6562 0.4843,-3.3437 0,-1.7031 -0.4843,-3.3516 -0.4844,-1.6484 -1.4532,-3.3203 z"
         id="path143"
         inkscape:connector-curvature="0" />
    </g>
    <g
       transform="translate(92,15)"
       style="font-weight:bold;font-size:14.66670036px;font-family:mwb_cmr10;color-interpolation:linearRGB;color-rendering:optimizeQuality;image-rendering:optimizeQuality;text-rendering:geometricPrecision"
       id="g149">
      <path
         style="stroke:none"
         d="m 0.9844,0 q -0.1406,0 -0.1406,-0.1719 0,-0.0625 0.0468,-0.0937 L 4.5781,-4.4688 0.8906,-9.7812 Q 0.8438,-9.8281 0.8438,-9.8594 v -0.25 q 0,-0.0468 0.0468,-0.0937 0.0469,-0.0469 0.0938,-0.0469 h 9.5781 l 0.4063,3.4375 H 9.5469 Q 9.4062,-7.875 9.1094,-8.4688 8.8125,-9.0625 8.3281,-9.3359 7.8438,-9.6094 7.2266,-9.6641 6.6094,-9.7188 5.4062,-9.7188 H 3.625 l 3.125,4.4844 q -0.1406,0.1094 -0.1406,0.1094 0,0.0781 0.1406,0.0938 L 2.9531,-0.6875 H 5.375 q 1.1875,0 1.8125,-0.0625 0.625,-0.0625 1.125,-0.3281 0.5,-0.2657 0.8047,-0.8672 0.3047,-0.6016 0.4297,-1.6641 h 1.4219 L 10.5625,0 Z"
         id="path147"
         inkscape:connector-curvature="0" />
    </g>
    <g
       transform="translate(104,22)"
       style="font-weight:bold;font-size:11.73330021px;font-family:SansSerif;color-interpolation:linearRGB;color-rendering:optimizeQuality;image-rendering:optimizeQuality;text-rendering:geometricPrecision"
       id="g153">
      <path
         style="stroke:none"
         d="m 4.125,-5.2188 q -0.6875,0 -1.0547,0.5 -0.3672,0.5 -0.3672,1.4376 0,0.9531 0.3672,1.4531 0.3672,0.5 1.0547,0.5 0.6875,0 1.0547,-0.5 0.3672,-0.5 0.3672,-1.4531 0,-0.9376 -0.3672,-1.4376 -0.3672,-0.5 -1.0547,-0.5 z m 0,-1.5 q 1.7031,0 2.6562,0.9141 0.9532,0.9141 0.9532,2.5235 0,1.625 -0.9532,2.539 -0.9531,0.9141 -2.6562,0.9141 -1.6875,0 -2.6484,-0.9141 -0.961,-0.914 -0.961,-2.539 0,-1.6094 0.961,-2.5235 0.9609,-0.9141 2.6484,-0.9141 z m 9.3947,1.1094 V -9.125 H 15.629 V 0 h -2.1093 v -0.9531 q -0.4219,0.5781 -0.9453,0.8515 -0.5235,0.2735 -1.211,0.2735 -1.2187,0 -1.9922,-0.9688 -0.7734,-0.9687 -0.7734,-2.4843 0,-1.5157 0.7734,-2.4766 0.7735,-0.961 1.9922,-0.961 0.6719,0 1.2031,0.2735 0.5313,0.2734 0.9532,0.8359 z m -1.375,4.25 q 0.6718,0 1.0234,-0.4922 0.3516,-0.4922 0.3516,-1.4296 0,-0.9376 -0.3516,-1.4297 -0.3516,-0.4922 -1.0234,-0.4922 -0.6719,0 -1.0235,0.4922 -0.3515,0.4921 -0.3515,1.4297 0,0.9374 0.3515,1.4296 0.3516,0.4922 1.0235,0.4922 z m 8.4197,-3.8594 q -0.6875,0 -1.0546,0.5 -0.3672,0.5 -0.3672,1.4376 0,0.9531 0.3672,1.4531 0.3671,0.5 1.0546,0.5 0.6875,0 1.0547,-0.5 0.3672,-0.5 0.3672,-1.4531 0,-0.9376 -0.3672,-1.4376 -0.3672,-0.5 -1.0547,-0.5 z m 0,-1.5 q 1.7032,0 2.6563,0.9141 0.9531,0.9141 0.9531,2.5235 0,1.625 -0.9531,2.539 -0.9531,0.9141 -2.6563,0.9141 -1.6875,0 -2.6484,-0.9141 -0.9609,-0.914 -0.9609,-2.539 0,-1.6094 0.9609,-2.5235 0.9609,-0.9141 2.6484,-0.9141 z m 11.0197,1.25 q 0.3906,-0.6093 0.9375,-0.9296 0.5469,-0.3204 1.2031,-0.3204 1.1407,0 1.7344,0.6954 0.5938,0.6953 0.5938,2.0234 v 4 h -2.1094 v -3.4219 q 0,-0.0781 0,-0.1562 0,-0.0781 0,-0.2344 0,-0.7031 -0.2031,-1.0156 -0.2032,-0.3125 -0.6563,-0.3125 -0.5937,0 -0.9219,0.4922 -0.3281,0.4922 -0.3437,1.4296 V 0 h -2.1094 v -3.4219 q 0,-1.0937 -0.1875,-1.4062 -0.1875,-0.3125 -0.6719,-0.3125 -0.5937,0 -0.9218,0.4922 -0.3282,0.4922 -0.3282,1.414 V 0 h -2.1093 v -6.5625 h 2.1093 v 0.9531 q 0.3907,-0.5468 0.8907,-0.8281 0.5,-0.2813 1.0937,-0.2813 0.6875,0 1.2109,0.3282 0.5235,0.3281 0.7891,0.9218 z"
         id="path151"
         inkscape:connector-curvature="0" />
    </g>
    <g
       transform="translate(141,15)"
       style="font-weight:bold;font-size:14.66670036px;font-family:SansSerif;color-interpolation:linearRGB;color-rendering:optimizeQuality;image-rendering:optimizeQuality;text-rendering:geometricPrecision"
       id="g157">
      <path
         style="stroke:none"
         d="m 1.5938,-7.2344 h 9.3906 v 1.7188 H 1.5938 Z m 0,3.3438 h 9.3906 v 1.7344 H 1.5938 Z m 16.3428,5.875 h -2.1719 q -1.125,-1.8125 -1.6562,-3.4453 -0.5313,-1.6329 -0.5313,-3.2266 0,-1.6094 0.5313,-3.2578 0.5312,-1.6485 1.6562,-3.4297 h 2.1719 q -0.9375,1.7344 -1.4063,3.3906 -0.4687,1.6563 -0.4687,3.2813 0,1.6093 0.4609,3.2734 0.461,1.6641 1.4141,3.4141 z m 7.9483,-7.4688 q 0,-2.0468 -0.3906,-2.8828 -0.3906,-0.8359 -1.2969,-0.8359 -0.9062,0 -1.2968,0.8359 -0.3907,0.836 -0.3907,2.8828 0,2.0782 0.3907,2.9297 0.3906,0.8516 1.2968,0.8516 0.9063,0 1.2969,-0.8516 0.3906,-0.8515 0.3906,-2.9297 z m 2.8125,0.0313 q 0,2.7187 -1.1718,4.1953 -1.1719,1.4766 -3.3282,1.4766 -2.1562,0 -3.3281,-1.4766 -1.1719,-1.4766 -1.1719,-4.1953 0,-2.7344 1.1719,-4.211 1.1719,-1.4765 3.3281,-1.4765 2.1563,0 3.3282,1.4765 1.1718,1.4766 1.1718,4.211 z m 2.0104,2.625 h 2.6406 V 0 h -2.6406 z m 5.802,0.875 h 2.4844 v -7.0625 l -2.5625,0.5312 v -1.9218 l 2.5469,-0.5313 h 2.6875 v 8.9844 h 2.4843 V 0 h -7.6406 z m 9.9635,-0.875 h 2.6406 v 2.2343 L 47.3014,2.125 h -1.5625 l 0.7344,-2.7188 z m 10.9426,-2.6563 q 0,-2.0468 -0.3906,-2.8828 -0.3906,-0.8359 -1.2969,-0.8359 -0.9062,0 -1.2969,0.8359 -0.3906,0.836 -0.3906,2.8828 0,2.0782 0.3906,2.9297 0.3907,0.8516 1.2969,0.8516 0.9063,0 1.2969,-0.8516 0.3906,-0.8515 0.3906,-2.9297 z m 2.8125,0.0313 q 0,2.7187 -1.1719,4.1953 -1.1718,1.4766 -3.3281,1.4766 -2.1562,0 -3.3281,-1.4766 -1.1719,-1.4766 -1.1719,-4.1953 0,-2.7344 1.1719,-4.211 1.1719,-1.4765 3.3281,-1.4765 2.1563,0 3.3281,1.4765 1.1719,1.4766 1.1719,4.211 z m 2.0104,2.625 h 2.6406 V 0 h -2.6406 z m 10.9426,-2.6563 q 0,-2.0468 -0.3906,-2.8828 -0.3906,-0.8359 -1.2969,-0.8359 -0.9062,0 -1.2969,0.8359 -0.3906,0.836 -0.3906,2.8828 0,2.0782 0.3906,2.9297 0.3907,0.8516 1.2969,0.8516 0.9063,0 1.2969,-0.8516 0.3906,-0.8515 0.3906,-2.9297 z m 2.8125,0.0313 q 0,2.7187 -1.1719,4.1953 -1.1718,1.4766 -3.3281,1.4766 -2.1562,0 -3.3281,-1.4766 -1.1719,-1.4766 -1.1719,-4.1953 0,-2.7344 1.1719,-4.211 1.1719,-1.4765 3.3281,-1.4765 2.1563,0 3.3281,1.4765 1.1719,1.4766 1.1719,4.211 z m 2.2447,3.5 h 2.4844 v -7.0625 l -2.5625,0.5312 v -1.9218 l 2.5469,-0.5313 h 2.6875 v 8.9844 h 2.4843 V 0 h -7.6406 z m 9.6353,3.9375 q 0.9375,-1.75 1.4063,-3.4141 0.4687,-1.6641 0.4687,-3.2734 0,-1.625 -0.4687,-3.2813 -0.4688,-1.6562 -1.4063,-3.3906 h 2.1719 q 1.1094,1.7812 1.6485,3.4297 0.539,1.6484 0.539,3.2578 0,1.5937 -0.5312,3.2266 -0.5313,1.6328 -1.6563,3.4453 z m 7.1672,-4.8125 h 2.6562 v 2.2343 L 95.8692,2.125 h -1.5625 l 0.7344,-2.7188 z m 0,-5.375 h 2.6562 v 2.8281 h -2.6562 z"
         id="path155"
         inkscape:connector-curvature="0" />
    </g>
    <g
       transform="translate(246,15)"
       style="font-weight:bold;font-size:14.66670036px;font-family:mwb_cmr10;color-interpolation:linearRGB;color-rendering:optimizeQuality;image-rendering:optimizeQuality;text-rendering:geometricPrecision"
       id="g161">
      <path
         style="stroke:none"
         d="m 0.9844,0 q -0.1406,0 -0.1406,-0.1719 0,-0.0625 0.0468,-0.0937 L 4.5781,-4.4688 0.8906,-9.7812 Q 0.8438,-9.8281 0.8438,-9.8594 v -0.25 q 0,-0.0468 0.0468,-0.0937 0.0469,-0.0469 0.0938,-0.0469 h 9.5781 l 0.4063,3.4375 H 9.5469 Q 9.4062,-7.875 9.1094,-8.4688 8.8125,-9.0625 8.3281,-9.3359 7.8438,-9.6094 7.2266,-9.6641 6.6094,-9.7188 5.4062,-9.7188 H 3.625 l 3.125,4.4844 q -0.1406,0.1094 -0.1406,0.1094 0,0.0781 0.1406,0.0938 L 2.9531,-0.6875 H 5.375 q 1.1875,0 1.8125,-0.0625 0.625,-0.0625 1.125,-0.3281 0.5,-0.2657 0.8047,-0.8672 0.3047,-0.6016 0.4297,-1.6641 h 1.4219 L 10.5625,0 Z"
         id="path159"
         inkscape:connector-curvature="0" />
    </g>
    <g
       transform="translate(258,22)"
       style="font-weight:bold;font-size:11.73330021px;font-family:SansSerif;color-interpolation:linearRGB;color-rendering:optimizeQuality;image-rendering:optimizeQuality;text-rendering:geometricPrecision"
       id="g165">
      <path
         style="stroke:none"
         d="M 1.0156,-9.125 H 3.1094 V 0 H 1.0156 Z m 9.3138,2.7656 v 1.7188 Q 9.9075,-4.9375 9.47,-5.0781 9.0325,-5.2188 8.5794,-5.2188 q -0.875,0 -1.3672,0.5079 -0.4922,0.5078 -0.4922,1.4297 0,0.9218 0.4922,1.4374 0.4922,0.5157 1.3672,0.5157 0.4844,0 0.9297,-0.1485 0.4453,-0.1484 0.8203,-0.4296 v 1.7187 q -0.5,0.1719 -1,0.2656 -0.5,0.0938 -1.0156,0.0938 -1.7813,0 -2.7813,-0.9141 -1,-0.914 -1,-2.539 0,-1.625 1,-2.5313 1,-0.9063 2.7813,-0.9063 0.5156,0 1.0156,0.086 0.5,0.0859 1,0.2734 z"
         id="path163"
         inkscape:connector-curvature="0" />
    </g>
    <g
       transform="translate(269,15)"
       style="font-weight:bold;font-size:14.66670036px;font-family:SansSerif;color-interpolation:linearRGB;color-rendering:optimizeQuality;image-rendering:optimizeQuality;text-rendering:geometricPrecision"
       id="g169">
      <path
         style="stroke:none"
         d="m 1.5938,-7.2344 h 9.3906 v 1.7188 H 1.5938 Z m 0,3.3438 h 9.3906 v 1.7344 H 1.5938 Z m 16.3428,5.875 h -2.1719 q -1.125,-1.8125 -1.6562,-3.4453 -0.5313,-1.6329 -0.5313,-3.2266 0,-1.6094 0.5313,-3.2578 0.5312,-1.6485 1.6562,-3.4297 h 2.1719 q -0.9375,1.7344 -1.4063,3.3906 -0.4687,1.6563 -0.4687,3.2813 0,1.6093 0.4609,3.2734 0.461,1.6641 1.4141,3.4141 z m 7.9483,-7.4688 q 0,-2.0468 -0.3906,-2.8828 -0.3906,-0.8359 -1.2969,-0.8359 -0.9062,0 -1.2968,0.8359 -0.3907,0.836 -0.3907,2.8828 0,2.0782 0.3907,2.9297 0.3906,0.8516 1.2968,0.8516 0.9063,0 1.2969,-0.8516 0.3906,-0.8515 0.3906,-2.9297 z m 2.8125,0.0313 q 0,2.7187 -1.1718,4.1953 -1.1719,1.4766 -3.3282,1.4766 -2.1562,0 -3.3281,-1.4766 -1.1719,-1.4766 -1.1719,-4.1953 0,-2.7344 1.1719,-4.211 1.1719,-1.4765 3.3281,-1.4765 2.1563,0 3.3282,1.4765 1.1718,1.4766 1.1718,4.211 z m 2.0104,2.625 h 2.6406 V 0 h -2.6406 z m 10.9426,-2.6563 q 0,-2.0468 -0.3906,-2.8828 -0.3906,-0.8359 -1.2969,-0.8359 -0.9062,0 -1.2968,0.8359 -0.3907,0.836 -0.3907,2.8828 0,2.0782 0.3907,2.9297 0.3906,0.8516 1.2968,0.8516 0.9063,0 1.2969,-0.8516 0.3906,-0.8515 0.3906,-2.9297 z m 2.8125,0.0313 q 0,2.7187 -1.1718,4.1953 -1.1719,1.4766 -3.3282,1.4766 -2.1562,0 -3.3281,-1.4766 -1.1719,-1.4766 -1.1719,-4.1953 0,-2.7344 1.1719,-4.211 1.1719,-1.4765 3.3281,-1.4765 2.1563,0 3.3282,1.4765 1.1718,1.4766 1.1718,4.211 z m 7.3854,-0.0313 q 0,-2.0468 -0.3907,-2.8828 -0.3906,-0.8359 -1.2968,-0.8359 -0.9063,0 -1.2969,0.8359 -0.3906,0.836 -0.3906,2.8828 0,2.0782 0.3906,2.9297 0.3906,0.8516 1.2969,0.8516 0.9062,0 1.2968,-0.8516 0.3907,-0.8515 0.3907,-2.9297 z m 2.8125,0.0313 q 0,2.7187 -1.1719,4.1953 -1.1719,1.4766 -3.3281,1.4766 -2.1563,0 -3.3282,-1.4766 -1.1718,-1.4766 -1.1718,-4.1953 0,-2.7344 1.1718,-4.211 1.1719,-1.4765 3.3282,-1.4765 2.1562,0 3.3281,1.4765 1.1719,1.4766 1.1719,4.211 z m 2.2447,3.5 h 2.4843 v -7.0625 l -2.5625,0.5312 v -1.9218 l 2.5469,-0.5313 h 2.6875 v 8.9844 h 2.4844 V 0 h -7.6406 z m 9.9634,-0.875 h 2.6407 v 2.2343 L 67.6971,2.125 h -1.5625 l 0.7343,-2.7188 z m 10.9427,-2.6563 q 0,-2.0468 -0.3906,-2.8828 -0.3907,-0.8359 -1.2969,-0.8359 -0.9063,0 -1.2969,0.8359 -0.3906,0.836 -0.3906,2.8828 0,2.0782 0.3906,2.9297 0.3906,0.8516 1.2969,0.8516 0.9062,0 1.2969,-0.8516 0.3906,-0.8515 0.3906,-2.9297 z m 2.8125,0.0313 q 0,2.7187 -1.1719,4.1953 -1.1719,1.4766 -3.3281,1.4766 -2.1563,0 -3.3281,-1.4766 -1.1719,-1.4766 -1.1719,-4.1953 0,-2.7344 1.1719,-4.211 1.1718,-1.4765 3.3281,-1.4765 2.1562,0 3.3281,1.4765 1.1719,1.4766 1.1719,4.211 z m 2.0103,2.625 H 85.275 V 0 h -2.6406 z m 10.9427,-2.6563 q 0,-2.0468 -0.3907,-2.8828 -0.3906,-0.8359 -1.2968,-0.8359 -0.9063,0 -1.2969,0.8359 -0.3906,0.836 -0.3906,2.8828 0,2.0782 0.3906,2.9297 0.3906,0.8516 1.2969,0.8516 0.9062,0 1.2968,-0.8516 0.3907,-0.8515 0.3907,-2.9297 z m 2.8125,0.0313 q 0,2.7187 -1.1719,4.1953 -1.1719,1.4766 -3.3281,1.4766 -2.1563,0 -3.3282,-1.4766 -1.1718,-1.4766 -1.1718,-4.1953 0,-2.7344 1.1718,-4.211 1.1719,-1.4765 3.3282,-1.4765 2.1562,0 3.3281,1.4765 1.1719,1.4766 1.1719,4.211 z m 7.3853,-0.0313 q 0,-2.0468 -0.3906,-2.8828 -0.3906,-0.8359 -1.2969,-0.8359 -0.9062,0 -1.2969,0.8359 -0.3906,0.836 -0.3906,2.8828 0,2.0782 0.3906,2.9297 0.3907,0.8516 1.2969,0.8516 0.9063,0 1.2969,-0.8516 0.3906,-0.8515 0.3906,-2.9297 z m 2.8125,0.0313 q 0,2.7187 -1.1719,4.1953 -1.1718,1.4766 -3.3281,1.4766 -2.1562,0 -3.3281,-1.4766 -1.1719,-1.4766 -1.1719,-4.1953 0,-2.7344 1.1719,-4.211 1.1719,-1.4765 3.3281,-1.4765 2.1563,0 3.3281,1.4765 1.1719,1.4766 1.1719,4.211 z m 7.3853,-0.0313 q 0,-2.0468 -0.3906,-2.8828 -0.3906,-0.8359 -1.2969,-0.8359 -0.9062,0 -1.2968,0.8359 -0.3907,0.836 -0.3907,2.8828 0,2.0782 0.3907,2.9297 0.3906,0.8516 1.2968,0.8516 0.9063,0 1.2969,-0.8516 0.3906,-0.8515 0.3906,-2.9297 z m 2.8125,0.0313 q 0,2.7187 -1.1718,4.1953 -1.1719,1.4766 -3.3282,1.4766 -2.1562,0 -3.3281,-1.4766 -1.1719,-1.4766 -1.1719,-4.1953 0,-2.7344 1.1719,-4.211 1.1719,-1.4765 3.3281,-1.4765 2.1563,0 3.3282,1.4765 1.1718,1.4766 1.1718,4.211 z m 2.2447,3.5 h 2.4844 v -7.0625 l -2.5625,0.5312 v -1.9218 l 2.5469,-0.5313 h 2.6875 v 8.9844 h 2.4844 V 0 h -7.6407 z m 9.6354,3.9375 q 0.9375,-1.75 1.4062,-3.4141 0.4688,-1.6641 0.4688,-3.2734 0,-1.625 -0.4688,-3.2813 -0.4687,-1.6562 -1.4062,-3.3906 h 2.1718 q 1.1094,1.7812 1.6485,3.4297 0.539,1.6484 0.539,3.2578 0,1.5937 -0.5312,3.2266 -0.5313,1.6328 -1.6563,3.4453 z m 7.1671,-4.8125 h 2.6562 v 2.2343 l -1.8281,2.7188 h -1.5625 l 0.7344,-2.7188 z m 0,-5.375 h 2.6562 v 2.8281 h -2.6562 z"
         id="path167"
         inkscape:connector-curvature="0" />
    </g>
    <g
       transform="translate(415,15)"
       style="font-weight:bold;font-size:14.66670036px;font-family:mwb_cmr10;color-interpolation:linearRGB;color-rendering:optimizeQuality;image-rendering:optimizeQuality;text-rendering:geometricPrecision"
       id="g173">
      <path
         style="stroke:none"
         d="m 0.9844,0 q -0.1406,0 -0.1406,-0.1719 0,-0.0625 0.0468,-0.0937 L 4.5781,-4.4688 0.8906,-9.7812 Q 0.8438,-9.8281 0.8438,-9.8594 v -0.25 q 0,-0.0468 0.0468,-0.0937 0.0469,-0.0469 0.0938,-0.0469 h 9.5781 l 0.4063,3.4375 H 9.5469 Q 9.4062,-7.875 9.1094,-8.4688 8.8125,-9.0625 8.3281,-9.3359 7.8438,-9.6094 7.2266,-9.6641 6.6094,-9.7188 5.4062,-9.7188 H 3.625 l 3.125,4.4844 q -0.1406,0.1094 -0.1406,0.1094 0,0.0781 0.1406,0.0938 L 2.9531,-0.6875 H 5.375 q 1.1875,0 1.8125,-0.0625 0.625,-0.0625 1.125,-0.3281 0.5,-0.2657 0.8047,-0.8672 0.3047,-0.6016 0.4297,-1.6641 h 1.4219 L 10.5625,0 Z"
         id="path171"
         inkscape:connector-curvature="0" />
    </g>
    <g
       transform="translate(427,22)"
       style="font-weight:bold;font-size:11.73330021px;font-family:SansSerif;color-interpolation:linearRGB;color-rendering:optimizeQuality;image-rendering:optimizeQuality;text-rendering:geometricPrecision"
       id="g177">
      <path
         style="stroke:none"
         d="M 5.8906,-4.7812 Q 5.6094,-4.9062 5.3359,-4.9688 5.0625,-5.0312 4.7812,-5.0312 q -0.7968,0 -1.2343,0.5234 -0.4375,0.5234 -0.4375,1.4766 V 0 H 1.0156 v -6.5625 h 2.0938 v 1.0781 q 0.4062,-0.6406 0.9297,-0.9375 0.5234,-0.2969 1.2578,-0.2969 0.0937,0 0.2187,0.0079 0.125,0.0078 0.3594,0.039 z"
         id="path175"
         inkscape:connector-curvature="0" />
    </g>
    <g
       transform="translate(433,15)"
       style="font-weight:bold;font-size:14.66670036px;font-family:SansSerif;color-interpolation:linearRGB;color-rendering:optimizeQuality;image-rendering:optimizeQuality;text-rendering:geometricPrecision"
       id="g181">
      <path
         style="stroke:none"
         d="m 1.5938,-7.2344 h 9.3906 v 1.7188 H 1.5938 Z m 0,3.3438 h 9.3906 v 1.7344 H 1.5938 Z m 17.5928,-1.5938 q 0,-2.0468 -0.3906,-2.8828 -0.3907,-0.8359 -1.2969,-0.8359 -0.9063,0 -1.2969,0.8359 -0.3906,0.836 -0.3906,2.8828 0,2.0782 0.3906,2.9297 0.3906,0.8516 1.2969,0.8516 0.9062,0 1.2969,-0.8516 0.3906,-0.8515 0.3906,-2.9297 z m 2.8125,0.0313 q 0,2.7187 -1.1719,4.1953 -1.1719,1.4766 -3.3281,1.4766 -2.1563,0 -3.3281,-1.4766 -1.1719,-1.4766 -1.1719,-4.1953 0,-2.7344 1.1719,-4.211 1.1718,-1.4765 3.3281,-1.4765 2.1562,0 3.3281,1.4765 1.1719,1.4766 1.1719,4.211 z m 2.0103,2.625 H 26.65 V 0 h -2.6406 z m 10.9427,-2.6563 q 0,-2.0468 -0.3907,-2.8828 -0.3906,-0.8359 -1.2968,-0.8359 -0.9063,0 -1.2969,0.8359 -0.3906,0.836 -0.3906,2.8828 0,2.0782 0.3906,2.9297 0.3906,0.8516 1.2969,0.8516 0.9062,0 1.2968,-0.8516 0.3907,-0.8515 0.3907,-2.9297 z m 2.8125,0.0313 q 0,2.7187 -1.1719,4.1953 -1.1719,1.4766 -3.3281,1.4766 -2.1563,0 -3.3282,-1.4766 -1.1718,-1.4766 -1.1718,-4.1953 0,-2.7344 1.1718,-4.211 1.1719,-1.4765 3.3282,-1.4765 2.1562,0 3.3281,1.4765 1.1719,1.4766 1.1719,4.211 z m 2.2447,3.5 h 2.4844 v -7.0625 l -2.5625,0.5312 v -1.9218 l 2.5468,-0.5313 h 2.6875 v 8.9844 h 2.4844 V 0 h -7.6406 z m 10.1041,-0.875 h 2.6562 v 2.2343 L 50.9415,2.125 H 49.379 l 0.7344,-2.7188 z m 0,-5.375 h 2.6562 v 2.8281 h -2.6562 z"
         id="path179"
         inkscape:connector-curvature="0" />
    </g>
    <g
       transform="translate(207,39)"
       style="font-weight:bold;font-size:14.66670036px;font-family:SansSerif;color-interpolation:linearRGB;color-rendering:optimizeQuality;image-rendering:optimizeQuality;text-rendering:geometricPrecision"
       id="g185">
      <path
         style="stroke:none"
         d="m 11.625,-4.5156 q -0.5156,0 -0.8047,0.4531 -0.2891,0.4531 -0.2891,1.2813 0,0.8437 0.2813,1.2968 0.2813,0.4532 0.8125,0.4532 0.5312,0 0.8047,-0.4532 0.2734,-0.4531 0.2734,-1.2968 0,-0.8282 -0.2812,-1.2813 -0.2813,-0.4531 -0.7969,-0.4531 z m 0,-1.2344 q 1.3594,0 2.1406,0.7969 0.7813,0.7969 0.7813,2.1719 0,1.3906 -0.7813,2.1953 -0.7812,0.8047 -2.1406,0.8047 -1.3594,0 -2.1484,-0.8047 -0.7891,-0.8047 -0.7891,-2.1953 0,-1.375 0.7891,-2.1719 Q 10.2656,-5.75 11.625,-5.75 Z M 4.9062,0.2188 h -1.625 l 6.8438,-11.3594 h 1.625 z m -1.5,-11.3594 q 1.3594,0 2.1407,0.7968 0.7812,0.7969 0.7812,2.1876 0,1.375 -0.7812,2.1796 -0.7813,0.8047 -2.1407,0.8047 -1.3593,0 -2.1406,-0.8047 -0.7812,-0.8046 -0.7812,-2.1796 0,-1.3907 0.7812,-2.1876 0.7813,-0.7968 2.1406,-0.7968 z m 0,1.2344 q -0.5312,0 -0.8124,0.4531 Q 2.3125,-9 2.3125,-8.1562 q 0,0.8437 0.2813,1.2968 0.2812,0.4532 0.8124,0.4532 0.5313,0 0.8126,-0.4532 Q 4.5,-7.3125 4.5,-8.1562 4.5,-9 4.2109,-9.4531 3.9219,-9.9062 3.4062,-9.9062 Z"
         id="path183"
         inkscape:connector-curvature="0" />
    </g>
    <g
       transform="translate(222,46)"
       style="font-weight:bold;font-size:11.73330021px;font-family:SansSerif;color-interpolation:linearRGB;color-rendering:optimizeQuality;image-rendering:optimizeQuality;text-rendering:geometricPrecision"
       id="g189">
      <path
         style="stroke:none"
         d="M 1.0156,-9.125 H 3.1094 V 0 H 1.0156 Z m 9.3138,2.7656 v 1.7188 Q 9.9075,-4.9375 9.47,-5.0781 9.0325,-5.2188 8.5794,-5.2188 q -0.875,0 -1.3672,0.5079 -0.4922,0.5078 -0.4922,1.4297 0,0.9218 0.4922,1.4374 0.4922,0.5157 1.3672,0.5157 0.4844,0 0.9297,-0.1485 0.4453,-0.1484 0.8203,-0.4296 v 1.7187 q -0.5,0.1719 -1,0.2656 -0.5,0.0938 -1.0156,0.0938 -1.7813,0 -2.7813,-0.9141 -1,-0.914 -1,-2.539 0,-1.625 1,-2.5313 1,-0.9063 2.7813,-0.9063 0.5156,0 1.0156,0.086 0.5,0.0859 1,0.2734 z"
         id="path187"
         inkscape:connector-curvature="0" />
    </g>
    <g
       transform="translate(233,39)"
       style="font-weight:bold;font-size:14.66670036px;font-family:SansSerif;color-interpolation:linearRGB;color-rendering:optimizeQuality;image-rendering:optimizeQuality;text-rendering:geometricPrecision"
       id="g193">
      <path
         style="stroke:none"
         d="m 1.5938,-7.2344 h 9.3906 v 1.7188 H 1.5938 Z m 0,3.3438 h 9.3906 v 1.7344 H 1.5938 Z m 15.0147,1.8125 H 21.421 V 0 h -7.9532 v -2.0781 l 3.9844,-3.5157 q 0.5469,-0.4843 0.7969,-0.9453 0.25,-0.4609 0.25,-0.9609 0,-0.7656 -0.5156,-1.2344 -0.5157,-0.4687 -1.3594,-0.4687 -0.6719,0 -1.4531,0.2812 -0.7813,0.2813 -1.6719,0.8281 v -2.3906 q 0.9531,-0.3125 1.8828,-0.4844 0.9297,-0.1718 1.8203,-0.1718 1.9688,0 3.0547,0.8672 1.0859,0.8672 1.0859,2.414 0,0.8906 -0.4609,1.6641 -0.4609,0.7734 -1.9453,2.0703 z m 7.4634,-8.8594 h 7 v 2.0781 h -4.75 v 1.6875 q 0.3125,-0.0937 0.6406,-0.1406 0.3282,-0.0469 0.6719,-0.0469 2,0 3.1172,1 1.1172,1 1.1172,2.7969 0,1.7656 -1.2109,2.7734 -1.211,1.0079 -3.3672,1.0079 -0.9375,0 -1.8438,-0.1797 -0.9062,-0.1797 -1.8125,-0.5547 v -2.2188 q 0.8906,0.5156 1.6953,0.7735 0.8047,0.2578 1.5078,0.2578 1.0313,0 1.6172,-0.5 0.586,-0.5 0.586,-1.3594 0,-0.875 -0.586,-1.3672 -0.5859,-0.4922 -1.6172,-0.4922 -0.6093,0 -1.2968,0.1563 -0.6875,0.1562 -1.4688,0.4844 z m 12.4635,0 h 1.625 L 34.301,1.3906 h -1.625 z m 3.0873,0 h 7 v 2.0781 h -4.75 v 1.6875 q 0.3125,-0.0937 0.6406,-0.1406 0.3282,-0.0469 0.6719,-0.0469 2,0 3.1172,1 1.1172,1 1.1172,2.7969 0,1.7656 -1.211,2.7734 -1.2109,1.0079 -3.3671,1.0079 -0.9375,0 -1.8438,-0.1797 -0.9062,-0.1797 -1.8125,-0.5547 v -2.2188 q 0.8906,0.5156 1.6953,0.7735 0.8047,0.2578 1.5078,0.2578 1.0313,0 1.6172,-0.5 0.586,-0.5 0.586,-1.3594 0,-0.875 -0.586,-1.3672 -0.5859,-0.4922 -1.6172,-0.4922 -0.6093,0 -1.2968,0.1563 -0.6875,0.1562 -1.4688,0.4844 z m 15.5103,5.4531 q 0,-2.0468 -0.3906,-2.8828 -0.3906,-0.8359 -1.2969,-0.8359 -0.9062,0 -1.2968,0.8359 -0.3907,0.836 -0.3907,2.8828 0,2.0782 0.3907,2.9297 0.3906,0.8516 1.2968,0.8516 0.9063,0 1.2969,-0.8516 0.3906,-0.8515 0.3906,-2.9297 z m 2.8125,0.0313 q 0,2.7187 -1.1718,4.1953 -1.1719,1.4766 -3.3282,1.4766 -2.1562,0 -3.3281,-1.4766 -1.1719,-1.4766 -1.1719,-4.1953 0,-2.7344 1.1719,-4.211 1.1719,-1.4765 3.3281,-1.4765 2.1563,0 3.3282,1.4765 1.1718,1.4766 1.1718,4.211 z m 2.151,2.625 h 2.6562 v 2.2343 L 60.9246,2.125 h -1.5625 l 0.7344,-2.7188 z m 0,-5.375 h 2.6562 v 2.8281 h -2.6562 z m 20.9167,3.6875 q -0.5156,0 -0.8047,0.4531 -0.2891,0.4531 -0.2891,1.2813 0,0.8437 0.2813,1.2968 0.2812,0.4532 0.8125,0.4532 0.5312,0 0.8047,-0.4532 0.2734,-0.4531 0.2734,-1.2968 0,-0.8282 -0.2812,-1.2813 -0.2813,-0.4531 -0.7969,-0.4531 z m 0,-1.2344 q 1.3594,0 2.1406,0.7969 0.7813,0.7969 0.7813,2.1719 0,1.3906 -0.7813,2.1953 -0.7812,0.8047 -2.1406,0.8047 -1.3594,0 -2.1485,-0.8047 -0.789,-0.8047 -0.789,-2.1953 0,-1.375 0.789,-2.1719 0.7891,-0.7969 2.1485,-0.7969 z m -6.7188,5.9688 h -1.625 l 6.8438,-11.3594 h 1.625 z m -1.5,-11.3594 q 1.3594,0 2.1407,0.7968 0.7812,0.7969 0.7812,2.1876 0,1.375 -0.7812,2.1796 -0.7813,0.8047 -2.1407,0.8047 -1.3593,0 -2.1406,-0.8047 -0.7812,-0.8046 -0.7812,-2.1796 0,-1.3907 0.7812,-2.1876 0.7813,-0.7968 2.1406,-0.7968 z m 0,1.2344 q -0.5312,0 -0.8125,0.4531 -0.2812,0.4531 -0.2812,1.2969 0,0.8437 0.2812,1.2968 0.2813,0.4532 0.8125,0.4532 0.5313,0 0.8125,-0.4532 0.2813,-0.4531 0.2813,-1.2968 0,-0.8438 -0.2891,-1.2969 -0.289,-0.4531 -0.8047,-0.4531 z"
         id="path191"
         inkscape:connector-curvature="0" />
    </g>
    <g
       transform="translate(318,46)"
       style="font-weight:bold;font-size:11.73330021px;font-family:SansSerif;color-interpolation:linearRGB;color-rendering:optimizeQuality;image-rendering:optimizeQuality;text-rendering:geometricPrecision"
       id="g197">
      <path
         style="stroke:none"
         d="M 5.8906,-4.7812 Q 5.6094,-4.9062 5.3359,-4.9688 5.0625,-5.0312 4.7812,-5.0312 q -0.7968,0 -1.2343,0.5234 -0.4375,0.5234 -0.4375,1.4766 V 0 H 1.0156 v -6.5625 h 2.0938 v 1.0781 q 0.4062,-0.6406 0.9297,-0.9375 0.5234,-0.2969 1.2578,-0.2969 0.0937,0 0.2187,0.0079 0.125,0.0078 0.3594,0.039 z"
         id="path195"
         inkscape:connector-curvature="0" />
    </g>
    <g
       transform="translate(324,39)"
       style="font-weight:bold;font-size:14.66670036px;font-family:SansSerif;color-interpolation:linearRGB;color-rendering:optimizeQuality;image-rendering:optimizeQuality;text-rendering:geometricPrecision"
       id="g201">
      <path
         style="stroke:none"
         d="m 1.5938,-7.2344 h 9.3906 v 1.7188 H 1.5938 Z m 0,3.3438 h 9.3906 v 1.7344 H 1.5938 Z m 17.5928,-1.5938 q 0,-2.0468 -0.3906,-2.8828 -0.3907,-0.8359 -1.2969,-0.8359 -0.9063,0 -1.2969,0.8359 -0.3906,0.836 -0.3906,2.8828 0,2.0782 0.3906,2.9297 0.3906,0.8516 1.2969,0.8516 0.9062,0 1.2969,-0.8516 0.3906,-0.8515 0.3906,-2.9297 z m 2.8125,0.0313 q 0,2.7187 -1.1719,4.1953 -1.1719,1.4766 -3.3281,1.4766 -2.1563,0 -3.3281,-1.4766 -1.1719,-1.4766 -1.1719,-4.1953 0,-2.7344 1.1719,-4.211 1.1718,-1.4765 3.3281,-1.4765 2.1562,0 3.3281,1.4765 1.1719,1.4766 1.1719,4.211 z m 4.3384,-5.4844 h 1.625 L 24.1032,1.3906 h -1.625 z m 3.0874,0 h 7 v 2.0781 h -4.75 v 1.6875 q 0.3125,-0.0937 0.6406,-0.1406 0.3281,-0.0469 0.6719,-0.0469 2,0 3.1172,1 1.1172,1 1.1172,2.7969 0,1.7656 -1.211,2.7734 -1.2109,1.0079 -3.3672,1.0079 -0.9375,0 -1.8437,-0.1797 -0.9063,-0.1797 -1.8125,-0.5547 v -2.2188 q 0.8906,0.5156 1.6953,0.7735 0.8047,0.2578 1.5078,0.2578 1.0313,0 1.6172,-0.5 0.5859,-0.5 0.5859,-1.3594 0,-0.875 -0.5859,-1.3672 -0.5859,-0.4922 -1.6172,-0.4922 -0.6094,0 -1.2969,0.1563 -0.6875,0.1562 -1.4687,0.4844 z m 15.5103,5.4531 q 0,-2.0468 -0.3906,-2.8828 -0.3906,-0.8359 -1.2969,-0.8359 -0.9062,0 -1.2969,0.8359 -0.3906,0.836 -0.3906,2.8828 0,2.0782 0.3906,2.9297 0.3907,0.8516 1.2969,0.8516 0.9063,0 1.2969,-0.8516 0.3906,-0.8515 0.3906,-2.9297 z m 2.8125,0.0313 q 0,2.7187 -1.1719,4.1953 -1.1718,1.4766 -3.3281,1.4766 -2.1562,0 -3.3281,-1.4766 -1.1719,-1.4766 -1.1719,-4.1953 0,-2.7344 1.1719,-4.211 1.1719,-1.4765 3.3281,-1.4765 2.1563,0 3.3281,1.4765 1.1719,1.4766 1.1719,4.211 z"
         id="path199"
         inkscape:connector-curvature="0" />
    </g>
    <g
       style="color-interpolation:linearRGB;stroke-width:2;stroke-linecap:butt;stroke-linejoin:round;color-rendering:optimizeQuality;image-rendering:optimizeQuality;text-rendering:geometricPrecision"
       id="g209">
      <path
         d="m 295.6952,344.6774 14.5753,-0.5644 14.4298,-1.6877 14.1399,-2.7941 13.7088,-3.8726 13.1408,-4.9123 12.4414,-5.9031 11.6177,-6.8348 10.678,-7.6982 9.6315,-8.4847 8.4888,-9.1865 7.2614,-9.7964 5.9613,-10.3084 4.6017,-10.7176 3.1961,-11.0195 1.7585,-11.2114 0.3035,-11.2912 -1.1546,-11.2583 -2.6013,-11.1128 -4.0218,-10.8564 -5.4023,-10.4913 -6.7287,-10.0216 -7.9879,-9.4517 -9.1674,-8.7873 -10.2551,-8.0352 -11.2404,-7.2027 -12.1135,-6.2983 -12.8654,-5.3309 -13.4889,-4.3104 -13.9776,-3.2467 -14.3266,-2.1506 -14.5324,-1.0329 -14.593,0.0949 -14.508,1.2219 -14.2778,2.3367 -13.905,3.4281 -13.3934,4.4853 -12.7478,5.4976 -11.9749,6.455 -11.0824,7.348 -10.079,8.1675 -8.9751,8.9053 -7.7815,9.5543 -6.51,10.1077 -5.1736,10.5602 -3.7854,10.9071 -2.3594,11.1451 -0.9099,11.2717 0.5487,11.2857 2.002,11.1869"
         style="fill:none;fill-rule:evenodd"
         id="path203"
         inkscape:connector-curvature="0" />
      <path
         d="m 295.6952,344.6774 13.4032,2.489 6.8899,-3.3585 19.8025,-0.0555 10.1743,-2.7298 10.0767,5.2384 21.2238,-3.7441 10.6593,-1.2008 13.2852,-8.5238 18.4673,-7.13 6.5752,-8.8501 1.9676,-5.4481 15.5266,-14.4939 6.5651,-6.9252 0.6043,-13.5727 6.2227,-11.1919 -1.4952,-6.7367 -4.9437,-11.3863 -6.0154,-8.1907 -0.4075,-11.7483 -3.3703,-11.8883 -2.1834,-15.882 -9.7294,-14.7895 -9.978,-7.7669 -8.9067,-8.8547 -7.1692,-12.1841 -16.2044,-18.9458 -9.9425,-3.9935 L 361.8695,123.87 346.2072,117.8192 331.9749,106.903 327.5,102.3723 311.6972,90.6207 296.536,86.312 l -11.0204,-7.4787 -12.9836,3.5313 -16.7773,-2.4263 -10.278,-0.5374 -12.1298,5.5332 -18.377,2.7889 -16.5827,7.9613 -15.4383,-2.3687 -8.8188,4.8159 -20.6466,10.2372 -5.1935,8.4132 -15.2743,15.705 -11.6543,11.6292 -12.1947,5.4508 1.1854,15.6865 -1.1245,7.157"
         style="fill:none;fill-rule:evenodd;stroke:#ff0000"
         id="path205"
         inkscape:connector-curvature="0" />
      <path
         d="m 295.6952,344.6774 13.4052,2.4893 6.8919,-3.3581 25.7575,-0.1455 16.0198,-3.0543 5.8909,1.7652 16.5419,-7.0753 10.5934,-3.6317 12.6902,-11.5955 18.2364,-6.1634 6.3941,-6.79 -0.4426,-6.4861 19.0481,-17.1651 10.2014,-9.5518 2.7682,-14.5258 8.2273,-11.4988 -0.0592,-7.9516 2.9736,-12.5949 -9.224,-5.9714 -1.3764,-10.1913 -4.3261,-10.6359 -3.2554,-10.4454 -6.6243,-12.4814 -7.9201,-8.7257 -6.9426,-6.1465 -12.9702,-8.4282 -10.4751,-11.5049 -11.5804,-6.7594 -13.227,-4.6205 -11.0073,-3.1757 -16.1257,-5.1078 -8.2682,0.4545 -22.4147,-2.7201 -18.1216,4.2679 -10.0016,-3.9505 -9.7328,5.2924 -17.0586,0.2455 -14.3215,1.4666 -13.1171,6.5098 -14.7133,3.9609 -10.7889,8.6317 -14.2406,2.5537 -4.8797,7.7064 -13.5474,15.9577 0.2348,10.1691 -4.6359,13.714 -4.4546,8.5402 -3.4316,15.4542 1.8045,17.1949 0.4353,7.2018"
         style="fill:none;fill-rule:evenodd;stroke:#0000ff"
         id="path207"
         inkscape:connector-curvature="0" />
    </g>
    <g
       style="color-interpolation:sRGB;fill:#ffffff;stroke:#ffffff;color-rendering:optimizeSpeed;image-rendering:optimizeSpeed;shape-rendering:crispEdges;text-rendering:optimizeSpeed"
       id="g213">
      <path
         style="stroke:none"
         d="M 496,125 V 63 h -85 v 62 z"
         id="path211"
         inkscape:connector-curvature="0" />
    </g>
    <g
       transform="translate(458,72.5)"
       style="font-family:SansSerif;color-interpolation:linearRGB;color-rendering:optimizeQuality;image-rendering:optimizeQuality;text-rendering:geometricPrecision"
       id="g217">
      <path
         style="stroke:none"
         d="m 2.2031,-3.9219 v 1.8594 h 2.2188 v 0.8437 H 2.2031 v 3.5626 q 0,0.7968 0.2188,1.0234 0.2187,0.2266 0.8906,0.2266 H 4.4219 V 4.5 H 3.3125 Q 2.0625,4.5 1.5859,4.0312 1.1094,3.5625 1.1094,2.3438 V -1.2188 H 0.3281 v -0.8437 h 0.7813 v -1.8594 z m 7.4395,2.8594 Q 9.4551,-1.1562 9.2441,-1.2109 9.0332,-1.2656 8.7676,-1.2656 q -0.9063,0 -1.3985,0.5937 Q 6.877,-0.0781 6.877,1.0469 V 4.5 H 5.7988 V -2.0625 H 6.877 v 1.0156 q 0.3437,-0.5937 0.8906,-0.8828 0.5469,-0.2891 1.3281,-0.2891 0.1094,0 0.2422,0.0157 0.1328,0.0156 0.2891,0.0469 z m 1.0117,2.9687 v -3.9687 h 1.0781 V 1.875 q 0,0.9219 0.3672,1.3906 0.3672,0.4688 1.0859,0.4688 0.875,0 1.3829,-0.5547 0.5078,-0.5547 0.5078,-1.5235 v -3.7187 h 1.0781 V 4.5 H 15.0762 V 3.4844 q -0.3907,0.6094 -0.9063,0.8984 -0.5156,0.2891 -1.2031,0.2891 -1.1406,0 -1.7266,-0.7031 -0.5859,-0.7032 -0.5859,-2.0626 z m 8.793,-5.8281 v 1.8594 h 2.2187 v 0.8437 h -2.2187 v 3.5626 q 0,0.7968 0.2187,1.0234 0.2188,0.2266 0.8906,0.2266 H 21.666 V 4.5 h -1.1094 q -1.25,0 -1.7265,-0.4688 -0.4766,-0.4687 -0.4766,-1.6874 v -3.5626 h -0.7812 v -0.8437 h 0.7812 V -3.9219 Z M 28.543,0.5312 V 4.5 H 27.4648 V 0.5781 q 0,-0.9375 -0.3671,-1.3984 -0.3672,-0.4609 -1.086,-0.4609 -0.875,0 -1.3828,0.5546 -0.5078,0.5547 -0.5078,1.5235 V 4.5 H 23.043 v -9.125 h 1.0781 v 3.5781 q 0.3906,-0.5937 0.9141,-0.8828 0.5234,-0.2891 1.2109,-0.2891 1.125,0 1.7109,0.6954 0.586,0.6953 0.586,2.0546 z"
         id="path215"
         inkscape:connector-curvature="0" />
    </g>
    <g
       style="color-interpolation:linearRGB;stroke-width:2;stroke-linecap:butt;stroke-linejoin:round;color-rendering:optimizeQuality;image-rendering:optimizeQuality;text-rendering:geometricPrecision"
       id="g221">
      <line
         y2="72.5"
         style="fill:none"
         x1="415"
         x2="455"
         y1="72.5"
         id="line219" />
    </g>
    <g
       transform="translate(458,93)"
       style="font-family:SansSerif;color-interpolation:linearRGB;color-rendering:optimizeQuality;image-rendering:optimizeQuality;text-rendering:geometricPrecision"
       id="g225">
      <path
         style="stroke:none"
         d="M 6.5938,-6.5625 4.2188,-3.375 6.7031,0 H 5.4375 L 3.5312,-2.5781 1.625,0 H 0.3438 l 2.5468,-3.4375 -2.3281,-3.125 h 1.2656 l 1.75,2.3437 1.7344,-2.3437 z m 7.1015,2.5937 V 0 h -1.0781 v -3.9219 q 0,-0.9375 -0.3672,-1.3984 -0.3672,-0.4609 -1.0859,-0.4609 -0.875,0 -1.3829,0.5546 -0.5078,0.5547 -0.5078,1.5235 V 0 H 8.1953 v -9.125 h 1.0781 v 3.5781 q 0.3907,-0.5937 0.9141,-0.8828 0.5234,-0.2891 1.2109,-0.2891 1.125,0 1.711,0.6954 0.5859,0.6953 0.5859,2.0546 z m 5.1211,0.6719 q -1.2969,0 -1.8047,0.2969 -0.5078,0.2969 -0.5078,1.0156 0,0.5782 0.3828,0.9141 0.3828,0.3359 1.0235,0.3359 0.9062,0 1.4453,-0.6328 0.539,-0.6328 0.539,-1.6953 V -3.2969 Z M 20.9727,-3.75 V 0 h -1.0782 v -1 q -0.375,0.5938 -0.9218,0.8828 -0.5469,0.2891 -1.3438,0.2891 -1.0156,0 -1.6094,-0.5703 -0.5937,-0.5704 -0.5937,-1.5078 0,-1.1094 0.7422,-1.6719 0.7422,-0.5625 2.2109,-0.5625 h 1.5156 V -4.25 q 0,-0.75 -0.4922,-1.1562 -0.4921,-0.4063 -1.3671,-0.4063 -0.5625,0 -1.1016,0.1406 -0.5391,0.1407 -1.0234,0.4063 v -1 q 0.5937,-0.2344 1.1484,-0.3438 0.5547,-0.1094 1.0859,-0.1094 1.4219,0 2.125,0.7344 0.7032,0.7344 0.7032,2.2344 z m 3.291,-4.6719 v 1.8594 h 2.2187 v 0.8437 h -2.2187 v 3.5626 q 0,0.7968 0.2187,1.0234 0.2188,0.2266 0.8906,0.2266 h 1.1094 V 0 H 25.373 q -1.25,0 -1.7265,-0.4688 -0.4766,-0.4687 -0.4766,-1.6874 v -3.5626 h -0.7812 v -0.8437 h 0.7812 v -1.8594 z"
         id="path223"
         inkscape:connector-curvature="0" />
    </g>
    <g
       transform="translate(485,99)"
       style="font-size:9.60000038px;font-family:SansSerif;color-interpolation:linearRGB;color-rendering:optimizeQuality;image-rendering:optimizeQuality;text-rendering:geometricPrecision"
       id="g229">
      <path
         style="stroke:none"
         d="m 3.1719,-6.6406 q -0.75,0 -1.1328,0.75 -0.3829,0.75 -0.3829,2.25 0,1.5 0.3829,2.25 0.3828,0.75 1.1328,0.75 0.7812,0 1.164,-0.75 0.3829,-0.75 0.3829,-2.25 0,-1.5 -0.3829,-2.25 -0.3828,-0.75 -1.164,-0.75 z m 0,-0.7813 q 1.2343,0 1.8828,0.9688 0.6484,0.9687 0.6484,2.8125 0,1.8437 -0.6484,2.8125 -0.6485,0.9687 -1.8828,0.9687 -1.2188,0 -1.8672,-0.9687 -0.6485,-0.9688 -0.6485,-2.8125 0,-1.8438 0.6485,-2.8125 0.6484,-0.9688 1.8672,-0.9688 z"
         id="path227"
         inkscape:connector-curvature="0" />
    </g>
    <g
       style="color-interpolation:linearRGB;fill:#ff0000;stroke:#ff0000;stroke-width:2;stroke-linecap:butt;stroke-linejoin:round;color-rendering:optimizeQuality;image-rendering:optimizeQuality;text-rendering:geometricPrecision"
       id="g233">
      <line
         y2="91"
         style="fill:none"
         x1="415"
         x2="455"
         y1="91"
         id="line231" />
    </g>
    <g
       transform="translate(458,115)"
       style="font-family:SansSerif;color-interpolation:linearRGB;color-rendering:optimizeQuality;image-rendering:optimizeQuality;text-rendering:geometricPrecision"
       id="g237">
      <path
         style="stroke:none"
         d="M 6.5938,-6.5625 4.2188,-3.375 6.7031,0 H 5.4375 L 3.5312,-2.5781 1.625,0 H 0.3438 l 2.5468,-3.4375 -2.3281,-3.125 h 1.2656 l 1.75,2.3437 1.7344,-2.3437 z m 7.1015,2.5937 V 0 h -1.0781 v -3.9219 q 0,-0.9375 -0.3672,-1.3984 -0.3672,-0.4609 -1.0859,-0.4609 -0.875,0 -1.3829,0.5546 -0.5078,0.5547 -0.5078,1.5235 V 0 H 8.1953 v -9.125 h 1.0781 v 3.5781 q 0.3907,-0.5937 0.9141,-0.8828 0.5234,-0.2891 1.2109,-0.2891 1.125,0 1.711,0.6954 0.5859,0.6953 0.5859,2.0546 z m 5.1211,0.6719 q -1.2969,0 -1.8047,0.2969 -0.5078,0.2969 -0.5078,1.0156 0,0.5782 0.3828,0.9141 0.3828,0.3359 1.0235,0.3359 0.9062,0 1.4453,-0.6328 0.539,-0.6328 0.539,-1.6953 V -3.2969 Z M 20.9727,-3.75 V 0 h -1.0782 v -1 q -0.375,0.5938 -0.9218,0.8828 -0.5469,0.2891 -1.3438,0.2891 -1.0156,0 -1.6094,-0.5703 -0.5937,-0.5704 -0.5937,-1.5078 0,-1.1094 0.7422,-1.6719 0.7422,-0.5625 2.2109,-0.5625 h 1.5156 V -4.25 q 0,-0.75 -0.4922,-1.1562 -0.4921,-0.4063 -1.3671,-0.4063 -0.5625,0 -1.1016,0.1406 -0.5391,0.1407 -1.0234,0.4063 v -1 q 0.5937,-0.2344 1.1484,-0.3438 0.5547,-0.1094 1.0859,-0.1094 1.4219,0 2.125,0.7344 0.7032,0.7344 0.7032,2.2344 z m 3.291,-4.6719 v 1.8594 h 2.2187 v 0.8437 h -2.2187 v 3.5626 q 0,0.7968 0.2187,1.0234 0.2188,0.2266 0.8906,0.2266 h 1.1094 V 0 H 25.373 q -1.25,0 -1.7265,-0.4688 -0.4766,-0.4687 -0.4766,-1.6874 v -3.5626 h -0.7812 v -0.8437 h 0.7812 v -1.8594 z"
         id="path235"
         inkscape:connector-curvature="0" />
    </g>
    <g
       transform="translate(485,121)"
       style="font-size:9.60000038px;font-family:SansSerif;color-interpolation:linearRGB;color-rendering:optimizeQuality;image-rendering:optimizeQuality;text-rendering:geometricPrecision"
       id="g241">
      <path
         style="stroke:none"
         d="m 3.7188,-7.5938 v 0.75 H 2.8594 q -0.4844,0 -0.6719,0.1954 Q 2,-6.4531 2,-5.9531 v 0.4843 h 1.4688 v 0.7032 H 2 V 0 H 1.0938 V -4.7656 H 0.2344 v -0.7032 h 0.8594 v -0.375 q 0,-0.9218 0.4218,-1.3359 0.4219,-0.4141 1.3438,-0.4141 z"
         id="path239"
         inkscape:connector-curvature="0" />
    </g>
    <g
       style="color-interpolation:linearRGB;fill:#0000ff;stroke:#0000ff;stroke-width:2;stroke-linecap:butt;stroke-linejoin:round;color-rendering:optimizeQuality;image-rendering:optimizeQuality;text-rendering:geometricPrecision"
       id="g245">
      <line
         y2="112.5"
         style="fill:none"
         x1="415"
         x2="455"
         y1="112.5"
         id="line243" />
    </g>
    <g
       style="color-interpolation:linearRGB;fill:#262626;stroke:#262626;stroke-width:0.66670001;stroke-linecap:butt;color-rendering:optimizeQuality;image-rendering:optimizeQuality;text-rendering:geometricPrecision"
       id="g249">
      <path
         d="M 411,125 V 63 h 85 v 62 z"
         style="fill:none;fill-rule:evenodd"
         id="path247"
         inkscape:connector-curvature="0" />
    </g>
  </g>
</svg>
