<?xml version="1.0" encoding="UTF-8" standalone="no"?>
<svg
   xmlns:dc="http://purl.org/dc/elements/1.1/"
   xmlns:cc="http://creativecommons.org/ns#"
   xmlns:rdf="http://www.w3.org/1999/02/22-rdf-syntax-ns#"
   xmlns:svg="http://www.w3.org/2000/svg"
   xmlns="http://www.w3.org/2000/svg"
   xmlns:sodipodi="http://sodipodi.sourceforge.net/DTD/sodipodi-0.dtd"
   xmlns:inkscape="http://www.inkscape.org/namespaces/inkscape"
   style="font-style:normal;font-weight:normal;font-size:12px;font-family:Dialog;color-interpolation:auto;fill:#000000;fill-opacity:1;stroke:#000000;stroke-width:1;stroke-linecap:square;stroke-linejoin:miter;stroke-miterlimit:10;stroke-dasharray:none;stroke-dashoffset:0;stroke-opacity:1;color-rendering:auto;image-rendering:auto;shape-rendering:auto;text-rendering:auto"
   width="484.04166"
   height="354.02609"
   version="1.1"
   id="svg209"
   sodipodi:docname="4_2-clean-matlab.svg"
   inkscape:version="0.92.3 (2405546, 2018-03-11)">
  <metadata
     id="metadata213">
    <rdf:RDF>
      <cc:Work
         rdf:about="">
        <dc:format>image/svg+xml</dc:format>
        <dc:type
           rdf:resource="http://purl.org/dc/dcmitype/StillImage" />
      </cc:Work>
    </rdf:RDF>
  </metadata>
  <sodipodi:namedview
     pagecolor="#ffffff"
     bordercolor="#666666"
     borderopacity="1"
     objecttolerance="10"
     gridtolerance="10"
     guidetolerance="10"
     inkscape:pageopacity="0"
     inkscape:pageshadow="2"
     inkscape:window-width="894"
     inkscape:window-height="478"
     id="namedview211"
     showgrid="false"
     inkscape:zoom="0.65555556"
     inkscape:cx="252.7083"
     inkscape:cy="177.6511"
     inkscape:window-x="0"
     inkscape:window-y="55"
     inkscape:window-maximized="0"
     inkscape:current-layer="svg209" />
  <!--Generated by the Batik Graphics2D SVG Generator-->
  <defs
     id="genericDefs" />
  <g
     id="g207"
     transform="translate(-32.2917,-3.625)">
    <defs
       id="defs1">
      <clipPath
         clipPathUnits="userSpaceOnUse"
         id="clipPath1">
        <path
           d="M 0,0 H 570 V 360 H 0 Z"
           id="path3"
           inkscape:connector-curvature="0" />
      </clipPath>
    </defs>
    <g
       style="color-interpolation:linearRGB;fill:#262626;fill-opacity:0.14900004;stroke:#262626;stroke-width:0.66670001;stroke-linecap:butt;stroke-linejoin:round;stroke-opacity:0.14900004;color-rendering:optimizeQuality;image-rendering:optimizeQuality;text-rendering:geometricPrecision"
       id="g51">
      <line
         y2="28"
         style="fill:none"
         x1="115.457"
         x2="115.457"
         y1="319"
         id="line7" />
      <line
         y2="28"
         style="fill:none"
         x1="197.94"
         x2="197.94"
         y1="319"
         id="line9" />
      <line
         y2="28"
         style="fill:none"
         x1="280.4231"
         x2="280.4231"
         y1="319"
         id="line11" />
      <line
         y2="28"
         style="fill:none"
         x1="362.9061"
         x2="362.9061"
         y1="319"
         id="line13" />
      <line
         y2="28"
         style="fill:none"
         x1="445.38919"
         x2="445.38919"
         y1="319"
         id="line15" />
      <line
         y2="291.92361"
         style="fill:none"
         x1="516"
         x2="74"
         y1="291.92361"
         id="line17" />
      <line
         y2="235.177"
         style="fill:none"
         x1="516"
         x2="74"
         y1="235.177"
         id="line19" />
      <line
         y2="178.4304"
         style="fill:none"
         x1="516"
         x2="74"
         y1="178.4304"
         id="line21" />
      <line
         y2="121.6838"
         style="fill:none"
         x1="516"
         x2="74"
         y1="121.6838"
         id="line23" />
      <line
         y2="64.937202"
         style="fill:none"
         x1="516"
         x2="74"
         y1="64.937202"
         id="line25" />
      <line
         x1="74"
         x2="516"
         y1="319"
         style="fill:none;fill-opacity:1;stroke-linecap:square;stroke-opacity:1"
         y2="319"
         id="line27" />
      <line
         x1="74"
         x2="516"
         y1="28"
         style="fill:none;fill-opacity:1;stroke-linecap:square;stroke-opacity:1"
         y2="28"
         id="line29" />
      <line
         x1="115.457"
         x2="115.457"
         y1="319"
         style="fill:none;fill-opacity:1;stroke-linecap:square;stroke-opacity:1"
         y2="314.57999"
         id="line31" />
      <line
         x1="197.94"
         x2="197.94"
         y1="319"
         style="fill:none;fill-opacity:1;stroke-linecap:square;stroke-opacity:1"
         y2="314.57999"
         id="line33" />
      <line
         x1="280.4231"
         x2="280.4231"
         y1="319"
         style="fill:none;fill-opacity:1;stroke-linecap:square;stroke-opacity:1"
         y2="314.57999"
         id="line35" />
      <line
         x1="362.9061"
         x2="362.9061"
         y1="319"
         style="fill:none;fill-opacity:1;stroke-linecap:square;stroke-opacity:1"
         y2="314.57999"
         id="line37" />
      <line
         x1="445.38919"
         x2="445.38919"
         y1="319"
         style="fill:none;fill-opacity:1;stroke-linecap:square;stroke-opacity:1"
         y2="314.57999"
         id="line39" />
      <line
         x1="115.457"
         x2="115.457"
         y1="28"
         style="fill:none;fill-opacity:1;stroke-linecap:square;stroke-opacity:1"
         y2="32.419998"
         id="line41" />
      <line
         x1="197.94"
         x2="197.94"
         y1="28"
         style="fill:none;fill-opacity:1;stroke-linecap:square;stroke-opacity:1"
         y2="32.419998"
         id="line43" />
      <line
         x1="280.4231"
         x2="280.4231"
         y1="28"
         style="fill:none;fill-opacity:1;stroke-linecap:square;stroke-opacity:1"
         y2="32.419998"
         id="line45" />
      <line
         x1="362.9061"
         x2="362.9061"
         y1="28"
         style="fill:none;fill-opacity:1;stroke-linecap:square;stroke-opacity:1"
         y2="32.419998"
         id="line47" />
      <line
         x1="445.38919"
         x2="445.38919"
         y1="28"
         style="fill:none;fill-opacity:1;stroke-linecap:square;stroke-opacity:1"
         y2="32.419998"
         id="line49" />
    </g>
    <g
       transform="translate(115.457,324.3333)"
       style="font-size:13.33329964px;font-family:SansSerif;color-interpolation:linearRGB;fill:#262626;stroke:#262626;color-rendering:optimizeQuality;image-rendering:optimizeQuality;text-rendering:geometricPrecision"
       id="g55">
      <path
         style="stroke:none"
         d="m -10.3594,8.9219 h 3.4219 v 1.0312 h -3.4219 z m 5.7725,3 h 2.0937 V 4.6875 L -4.7744,5.1406 V 3.9844 l 2.2656,-0.4688 h 1.2969 v 8.4063 H 0.8818 V 13 H -4.5869 Z M 6.3985,4.3594 q -0.9844,0 -1.4844,0.9765 -0.5,0.9766 -0.5,2.9297 0,1.9532 0.5,2.9297 0.5,0.9766 1.4844,0.9766 1,0 1.5,-0.9766 0.5,-0.9765 0.5,-2.9297 0,-1.9531 -0.5,-2.9297 -0.5,-0.9765 -1.5,-0.9765 z m 0,-1.0156 q 1.5937,0 2.4375,1.2656 0.8437,1.2656 0.8437,3.6562 0,2.3906 -0.8437,3.6563 -0.8438,1.2656 -2.4375,1.2656 -1.5781,0 -2.4219,-1.2656 Q 3.1329,10.6562 3.1329,8.2656 3.1329,5.875 3.9766,4.6094 4.8204,3.3438 6.3985,3.3438 Z"
         id="path53"
         inkscape:connector-curvature="0" />
    </g>
    <g
       transform="translate(197.94,324.3333)"
       style="font-size:13.33329964px;font-family:SansSerif;color-interpolation:linearRGB;fill:#262626;stroke:#262626;color-rendering:optimizeQuality;image-rendering:optimizeQuality;text-rendering:geometricPrecision"
       id="g59">
      <path
         style="stroke:none"
         d="m -6.3594,8.9219 h 3.4219 V 9.9531 H -6.3594 Z M -0.7901,3.5156 H 4.2412 V 4.6094 H 0.3818 V 6.9219 Q 0.6631,6.8281 0.9443,6.7812 1.2256,6.7344 1.4912,6.7344 q 1.5937,0 2.5234,0.8672 0.9297,0.8672 0.9297,2.3515 0,1.5313 -0.9531,2.3828 -0.9531,0.8516 -2.6875,0.8516 -0.5938,0 -1.2188,-0.1016 -0.625,-0.1015 -1.2812,-0.3047 v -1.2968 q 0.5781,0.3125 1.1875,0.4687 0.6094,0.1563 1.2812,0.1563 1.1094,0 1.75,-0.5782 0.6407,-0.5781 0.6407,-1.5781 0,-0.9843 -0.6407,-1.5625 -0.6406,-0.5781 -1.75,-0.5781 -0.5156,0 -1.0234,0.1172 -0.5078,0.1172 -1.0391,0.3515 z"
         id="path57"
         inkscape:connector-curvature="0" />
    </g>
    <g
       transform="translate(280.4231,324.3333)"
       style="font-size:13.33329964px;font-family:SansSerif;color-interpolation:linearRGB;fill:#262626;stroke:#262626;color-rendering:optimizeQuality;image-rendering:optimizeQuality;text-rendering:geometricPrecision"
       id="g63">
      <path
         style="stroke:none"
         d="m -0.375,4.3594 q -0.9844,0 -1.4844,0.9765 -0.5,0.9766 -0.5,2.9297 0,1.9532 0.5,2.9297 0.5,0.9766 1.4844,0.9766 1,0 1.5,-0.9766 0.5,-0.9765 0.5,-2.9297 0,-1.9531 -0.5,-2.9297 -0.5,-0.9765 -1.5,-0.9765 z m 0,-1.0156 q 1.5938,0 2.4375,1.2656 0.8437,1.2656 0.8437,3.6562 0,2.3906 -0.8437,3.6563 -0.8437,1.2656 -2.4375,1.2656 -1.5781,0 -2.4219,-1.2656 -0.8437,-1.2657 -0.8437,-3.6563 0,-2.3906 0.8437,-3.6562 0.8438,-1.2656 2.4219,-1.2656 z"
         id="path61"
         inkscape:connector-curvature="0" />
    </g>
    <g
       transform="translate(362.9061,324.3333)"
       style="font-size:13.33329964px;font-family:SansSerif;color-interpolation:linearRGB;fill:#262626;stroke:#262626;color-rendering:optimizeQuality;image-rendering:optimizeQuality;text-rendering:geometricPrecision"
       id="g67">
      <path
         style="stroke:none"
         d="m -3.0938,3.5156 h 5.0313 v 1.0938 h -3.8594 v 2.3125 q 0.2813,-0.0938 0.5625,-0.1407 0.2813,-0.0468 0.5469,-0.0468 1.5937,0 2.5234,0.8672 0.9297,0.8672 0.9297,2.3515 0,1.5313 -0.9531,2.3828 -0.9531,0.8516 -2.6875,0.8516 -0.5938,0 -1.2188,-0.1016 -0.625,-0.1015 -1.2812,-0.3047 v -1.2968 q 0.5781,0.3125 1.1875,0.4687 0.6094,0.1563 1.2813,0.1563 1.1093,0 1.75,-0.5782 0.6406,-0.5781 0.6406,-1.5781 0,-0.9843 -0.6406,-1.5625 -0.6407,-0.5781 -1.75,-0.5781 -0.5157,0 -1.0235,0.1172 -0.5078,0.1172 -1.0391,0.3515 z"
         id="path65"
         inkscape:connector-curvature="0" />
    </g>
    <g
       transform="translate(445.3892,324.3333)"
       style="font-size:13.33329964px;font-family:SansSerif;color-interpolation:linearRGB;fill:#262626;stroke:#262626;color-rendering:optimizeQuality;image-rendering:optimizeQuality;text-rendering:geometricPrecision"
       id="g71">
      <path
         style="stroke:none"
         d="m -6.8906,11.9219 h 2.0937 V 4.6875 L -7.0781,5.1406 V 3.9844 l 2.2656,-0.4688 h 1.2969 v 8.4063 h 2.0937 V 13 H -6.8906 Z M 4.0948,4.3594 q -0.9844,0 -1.4844,0.9765 -0.5,0.9766 -0.5,2.9297 0,1.9532 0.5,2.9297 0.5,0.9766 1.4844,0.9766 1,0 1.5,-0.9766 0.5,-0.9765 0.5,-2.9297 0,-1.9531 -0.5,-2.9297 -0.5,-0.9765 -1.5,-0.9765 z m 0,-1.0156 q 1.5938,0 2.4375,1.2656 0.8438,1.2656 0.8438,3.6562 0,2.3906 -0.8438,3.6563 -0.8437,1.2656 -2.4375,1.2656 -1.5781,0 -2.4219,-1.2656 Q 0.8292,10.6562 0.8292,8.2656 0.8292,5.875 1.6729,4.6094 2.5167,3.3438 4.0948,3.3438 Z"
         id="path69"
         inkscape:connector-curvature="0" />
    </g>
    <g
       transform="translate(295.0002,341.6667)"
       style="font-size:14.66670036px;font-family:SansSerif;color-interpolation:linearRGB;fill:#262626;stroke:#262626;color-rendering:optimizeQuality;image-rendering:optimizeQuality;text-rendering:geometricPrecision"
       id="g75">
      <path
         style="stroke:none"
         d="m -11.7656,5.7969 -2.9688,3.9843 3.125,4.2188 h -1.5937 L -15.5938,10.7812 -17.9844,14 h -1.5781 l 3.1875,-4.2969 -2.9219,-3.9062 h 1.5938 l 2.1719,2.9219 2.1718,-2.9219 z M -2.0114,2.625 q -0.9844,1.6719 -1.461,3.3203 -0.4765,1.6485 -0.4765,3.3516 0,1.6875 0.4765,3.3437 0.4766,1.6563 1.461,3.3438 H -3.1833 Q -4.2927,14.25 -4.8317,12.5938 -5.3708,10.9375 -5.3708,9.2969 -5.3708,7.6562 -4.8317,6 -4.2927,4.3438 -3.1833,2.625 Z m 8.8585,4.75 Q 7.3628,6.4688 8.0659,6.0312 8.769,5.5938 9.7221,5.5938 q 1.2813,0 1.9766,0.8984 0.6953,0.8984 0.6953,2.5547 V 14 H 11.0346 V 9.0938 q 0,-1.1876 -0.4218,-1.7579 Q 10.1909,6.7656 9.3471,6.7656 8.3003,6.7656 7.6909,7.4609 7.0815,8.1562 7.0815,9.3594 V 14 H 5.7221 V 9.0938 q 0,-1.1876 -0.414,-1.7579 Q 4.894,6.7656 4.019,6.7656 2.9878,6.7656 2.3784,7.4688 1.769,8.1719 1.769,9.3594 V 14 H 0.4096 V 5.7969 H 1.769 V 7.0781 Q 2.2221,6.3125 2.8706,5.9531 3.519,5.5938 4.4096,5.5938 q 0.8907,0 1.5157,0.4531 Q 6.5503,6.5 6.8471,7.375 Z m 7.6832,-4.75 h 1.1719 Q 16.796,4.3438 17.3428,6 q 0.5469,1.6562 0.5469,3.2969 0,1.6406 -0.5469,3.2969 -0.5468,1.6562 -1.6406,3.3906 h -1.1719 q 0.9688,-1.6875 1.4532,-3.3438 0.4843,-1.6562 0.4843,-3.3437 0,-1.7031 -0.4843,-3.3516 Q 15.4991,4.2969 14.5303,2.625 Z"
         id="path73"
         inkscape:connector-curvature="0" />
    </g>
    <g
       style="color-interpolation:linearRGB;fill:#262626;stroke:#262626;stroke-width:0.66670001;stroke-linejoin:round;color-rendering:optimizeQuality;image-rendering:optimizeQuality;text-rendering:geometricPrecision"
       id="g101">
      <line
         y2="28"
         style="fill:none"
         x1="74"
         x2="74"
         y1="319"
         id="line77" />
      <line
         y2="28"
         style="fill:none"
         x1="516"
         x2="516"
         y1="319"
         id="line79" />
      <line
         y2="291.92361"
         style="fill:none"
         x1="74"
         x2="78.419998"
         y1="291.92361"
         id="line81" />
      <line
         y2="235.177"
         style="fill:none"
         x1="74"
         x2="78.419998"
         y1="235.177"
         id="line83" />
      <line
         y2="178.4304"
         style="fill:none"
         x1="74"
         x2="78.419998"
         y1="178.4304"
         id="line85" />
      <line
         y2="121.6838"
         style="fill:none"
         x1="74"
         x2="78.419998"
         y1="121.6838"
         id="line87" />
      <line
         y2="64.937202"
         style="fill:none"
         x1="74"
         x2="78.419998"
         y1="64.937202"
         id="line89" />
      <line
         y2="291.92361"
         style="fill:none"
         x1="516"
         x2="511.57999"
         y1="291.92361"
         id="line91" />
      <line
         y2="235.177"
         style="fill:none"
         x1="516"
         x2="511.57999"
         y1="235.177"
         id="line93" />
      <line
         y2="178.4304"
         style="fill:none"
         x1="516"
         x2="511.57999"
         y1="178.4304"
         id="line95" />
      <line
         y2="121.6838"
         style="fill:none"
         x1="516"
         x2="511.57999"
         y1="121.6838"
         id="line97" />
      <line
         y2="64.937202"
         style="fill:none"
         x1="516"
         x2="511.57999"
         y1="64.937202"
         id="line99" />
    </g>
    <g
       transform="translate(68.6667,291.9236)"
       style="font-size:13.33329964px;font-family:SansSerif;color-interpolation:linearRGB;fill:#262626;stroke:#262626;color-rendering:optimizeQuality;image-rendering:optimizeQuality;text-rendering:geometricPrecision"
       id="g105">
      <path
         style="stroke:none"
         d="m -4.875,-4.1406 q -0.9844,0 -1.4844,0.9765 -0.5,0.9766 -0.5,2.9297 0,1.9532 0.5,2.9297 0.5,0.9766 1.4844,0.9766 1,0 1.5,-0.9766 0.5,-0.9765 0.5,-2.9297 0,-1.9531 -0.5,-2.9297 -0.5,-0.9765 -1.5,-0.9765 z m 0,-1.0156 q 1.5938,0 2.4375,1.2656 0.8437,1.2656 0.8437,3.6562 0,2.3906 -0.8437,3.6563 -0.8437,1.2656 -2.4375,1.2656 -1.5781,0 -2.4219,-1.2656 -0.8437,-1.2657 -0.8437,-3.6563 0,-2.3906 0.8437,-3.6562 0.8438,-1.2656 2.4219,-1.2656 z"
         id="path103"
         inkscape:connector-curvature="0" />
    </g>
    <g
       transform="translate(68.6667,235.177)"
       style="font-size:13.33329964px;font-family:SansSerif;color-interpolation:linearRGB;fill:#262626;stroke:#262626;color-rendering:optimizeQuality;image-rendering:optimizeQuality;text-rendering:geometricPrecision"
       id="g109">
      <path
         style="stroke:none"
         d="m -7.5938,-4.9844 h 5.0313 v 1.0938 h -3.8594 v 2.3125 q 0.2813,-0.0938 0.5625,-0.1407 0.2813,-0.0468 0.5469,-0.0468 1.5937,0 2.5234,0.8672 0.9297,0.8672 0.9297,2.3515 0,1.5313 -0.9531,2.3828 -0.9531,0.8516 -2.6875,0.8516 -0.5938,0 -1.2188,-0.1016 Q -7.3438,4.4844 -8,4.2812 V 2.9844 q 0.5781,0.3125 1.1875,0.4687 0.6094,0.1563 1.2813,0.1563 1.1093,0 1.75,-0.5782 0.6406,-0.5781 0.6406,-1.5781 0,-0.9843 -0.6406,-1.5625 -0.6407,-0.5781 -1.75,-0.5781 -0.5157,0 -1.0235,0.1172 -0.5078,0.1172 -1.0391,0.3515 z"
         id="path107"
         inkscape:connector-curvature="0" />
    </g>
    <g
       transform="translate(68.6667,178.4304)"
       style="font-size:13.33329964px;font-family:SansSerif;color-interpolation:linearRGB;fill:#262626;stroke:#262626;color-rendering:optimizeQuality;image-rendering:optimizeQuality;text-rendering:geometricPrecision"
       id="g113">
      <path
         style="stroke:none"
         d="m -15.3906,3.4219 h 2.0937 v -7.2344 l -2.2812,0.4531 v -1.1562 l 2.2656,-0.4688 h 1.2969 v 8.4063 h 2.0937 V 4.5 h -5.4687 z m 10.9854,-7.5625 q -0.9844,0 -1.4844,0.9765 -0.5,0.9766 -0.5,2.9297 0,1.9532 0.5,2.9297 0.5,0.9766 1.4844,0.9766 1,0 1.5,-0.9766 0.5,-0.9765 0.5,-2.9297 0,-1.9531 -0.5,-2.9297 -0.5,-0.9765 -1.5,-0.9765 z m 0,-1.0156 q 1.5938,0 2.4375,1.2656 0.8438,1.2656 0.8438,3.6562 0,2.3906 -0.8438,3.6563 -0.8437,1.2656 -2.4375,1.2656 -1.5781,0 -2.4219,-1.2656 -0.8437,-1.2657 -0.8437,-3.6563 0,-2.3906 0.8437,-3.6562 0.8438,-1.2656 2.4219,-1.2656 z"
         id="path111"
         inkscape:connector-curvature="0" />
    </g>
    <g
       transform="translate(68.6667,121.6838)"
       style="font-size:13.33329964px;font-family:SansSerif;color-interpolation:linearRGB;fill:#262626;stroke:#262626;color-rendering:optimizeQuality;image-rendering:optimizeQuality;text-rendering:geometricPrecision"
       id="g117">
      <path
         style="stroke:none"
         d="m -15.3906,3.4219 h 2.0937 v -7.2344 l -2.2812,0.4531 v -1.1562 l 2.2656,-0.4688 h 1.2969 v 8.4063 h 2.0937 V 4.5 h -5.4687 z m 8.2667,-8.4063 h 5.0312 v 1.0938 h -3.8594 v 2.3125 q 0.2813,-0.0938 0.5625,-0.1407 0.2813,-0.0468 0.5469,-0.0468 1.5938,0 2.5235,0.8672 0.9296,0.8672 0.9296,2.3515 0,1.5313 -0.9531,2.3828 -0.9531,0.8516 -2.6875,0.8516 -0.5937,0 -1.2187,-0.1016 -0.625,-0.1015 -1.2813,-0.3047 V 2.9844 q 0.5781,0.3125 1.1875,0.4687 0.6094,0.1563 1.2813,0.1563 1.1093,0 1.75,-0.5782 0.6406,-0.5781 0.6406,-1.5781 0,-0.9843 -0.6406,-1.5625 -0.6407,-0.5781 -1.75,-0.5781 -0.5157,0 -1.0235,0.1172 -0.5078,0.1172 -1.039,0.3515 z"
         id="path115"
         inkscape:connector-curvature="0" />
    </g>
    <g
       transform="translate(68.6667,64.9372)"
       style="font-size:13.33329964px;font-family:SansSerif;color-interpolation:linearRGB;fill:#262626;stroke:#262626;color-rendering:optimizeQuality;image-rendering:optimizeQuality;text-rendering:geometricPrecision"
       id="g121">
      <path
         style="stroke:none"
         d="m -14.5,3.4219 h 4.4688 V 4.5 h -6.0157 V 3.4219 q 0.7344,-0.75 1.9922,-2.0235 1.2578,-1.2734 1.5859,-1.6484 0.6094,-0.6875 0.8516,-1.1719 0.2422,-0.4843 0.2422,-0.9375 0,-0.7656 -0.5234,-1.2344 -0.5235,-0.4687 -1.3828,-0.4687 -0.6094,0 -1.2735,0.2031 -0.6641,0.2032 -1.4297,0.6406 v -1.2968 q 0.7813,-0.3125 1.4532,-0.4766 0.6718,-0.164 1.2187,-0.164 1.4844,0 2.3594,0.7421 0.875,0.7422 0.875,1.9766 0,0.5781 -0.2188,1.1016 -0.2187,0.5234 -0.7969,1.2265 -0.1562,0.1875 -1.0078,1.0703 -0.8515,0.8829 -2.3984,2.461 z m 10.0948,-7.5625 q -0.9844,0 -1.4844,0.9765 -0.5,0.9766 -0.5,2.9297 0,1.9532 0.5,2.9297 0.5,0.9766 1.4844,0.9766 1,0 1.5,-0.9766 0.5,-0.9765 0.5,-2.9297 0,-1.9531 -0.5,-2.9297 -0.5,-0.9765 -1.5,-0.9765 z m 0,-1.0156 q 1.5938,0 2.4375,1.2656 0.8438,1.2656 0.8438,3.6562 0,2.3906 -0.8438,3.6563 -0.8437,1.2656 -2.4375,1.2656 -1.5781,0 -2.4219,-1.2656 -0.8437,-1.2657 -0.8437,-3.6563 0,-2.3906 0.8437,-3.6562 0.8438,-1.2656 2.4219,-1.2656 z"
         id="path119"
         inkscape:connector-curvature="0" />
    </g>
    <g
       transform="rotate(-90,110.5833,62.9166)"
       style="font-size:14.66670036px;font-family:SansSerif;color-interpolation:linearRGB;fill:#262626;stroke:#262626;color-rendering:optimizeQuality;image-rendering:optimizeQuality;text-rendering:geometricPrecision"
       id="g125">
      <path
         style="stroke:none"
         d="m -15.1719,-3.2344 q -0.5781,1.4688 -1.1172,1.9141 -0.539,0.4453 -1.4453,0.4453 h -1.0781 V -2 h 0.7969 q 0.5468,0 0.8594,-0.2656 0.3124,-0.2656 0.6718,-1.25 l 0.25,-0.6094 -3.3125,-8.0781 h 1.4219 l 2.5625,6.4219 2.5625,-6.4219 h 1.4375 z M -2.0114,-15.375 q -0.9844,1.6719 -1.461,3.3203 -0.4765,1.6485 -0.4765,3.3516 0,1.6875 0.4765,3.3437 0.4766,1.6563 1.461,3.3438 h -1.1719 q -1.1094,-1.7344 -1.6484,-3.3906 -0.5391,-1.6563 -0.5391,-3.2969 0,-1.6407 0.5391,-3.2969 0.539,-1.6562 1.6484,-3.375 z m 8.8585,4.75 q 0.5157,-0.9062 1.2188,-1.3438 0.7031,-0.4374 1.6562,-0.4374 1.2813,0 1.9766,0.8984 0.6953,0.8984 0.6953,2.5547 V -4 h -1.3594 v -4.9062 q 0,-1.1876 -0.4218,-1.7579 -0.4219,-0.5703 -1.2657,-0.5703 -1.0468,0 -1.6562,0.6953 -0.6094,0.6953 -0.6094,1.8985 V -4 H 5.7221 v -4.9062 q 0,-1.1876 -0.414,-1.7579 -0.4141,-0.5703 -1.2891,-0.5703 -1.0312,0 -1.6406,0.7032 Q 1.769,-9.8281 1.769,-8.6406 V -4 H 0.4096 v -8.2031 H 1.769 v 1.2812 q 0.4531,-0.7656 1.1016,-1.125 0.6484,-0.3593 1.539,-0.3593 0.8907,0 1.5157,0.4531 0.625,0.4531 0.9218,1.3281 z m 7.6832,-4.75 h 1.1719 q 1.0938,1.7188 1.6406,3.375 0.5469,1.6562 0.5469,3.2969 0,1.6406 -0.5469,3.2969 -0.5468,1.6562 -1.6406,3.3906 h -1.1719 q 0.9688,-1.6875 1.4532,-3.3438 0.4843,-1.6562 0.4843,-3.3437 0,-1.7031 -0.4843,-3.3516 -0.4844,-1.6484 -1.4532,-3.3203 z"
         id="path123"
         inkscape:connector-curvature="0" />
    </g>
    <g
       transform="translate(91,15)"
       style="font-weight:bold;font-size:14.66670036px;font-family:mwb_cmr10;color-interpolation:linearRGB;color-rendering:optimizeQuality;image-rendering:optimizeQuality;text-rendering:geometricPrecision"
       id="g129">
      <path
         style="stroke:none"
         d="m 0.9844,0 q -0.1406,0 -0.1406,-0.1719 0,-0.0625 0.0468,-0.0937 L 4.5781,-4.4688 0.8906,-9.7812 Q 0.8438,-9.8281 0.8438,-9.8594 v -0.25 q 0,-0.0468 0.0468,-0.0937 0.0469,-0.0469 0.0938,-0.0469 h 9.5781 l 0.4063,3.4375 H 9.5469 Q 9.4062,-7.875 9.1094,-8.4688 8.8125,-9.0625 8.3281,-9.3359 7.8438,-9.6094 7.2266,-9.6641 6.6094,-9.7188 5.4062,-9.7188 H 3.625 l 3.125,4.4844 q -0.1406,0.1094 -0.1406,0.1094 0,0.0781 0.1406,0.0938 L 2.9531,-0.6875 H 5.375 q 1.1875,0 1.8125,-0.0625 0.625,-0.0625 1.125,-0.3281 0.5,-0.2657 0.8047,-0.8672 0.3047,-0.6016 0.4297,-1.6641 h 1.4219 L 10.5625,0 Z"
         id="path127"
         inkscape:connector-curvature="0" />
    </g>
    <g
       transform="translate(103,22)"
       style="font-weight:bold;font-size:11.73330021px;font-family:SansSerif;color-interpolation:linearRGB;color-rendering:optimizeQuality;image-rendering:optimizeQuality;text-rendering:geometricPrecision"
       id="g133">
      <path
         style="stroke:none"
         d="m 4.125,-5.2188 q -0.6875,0 -1.0547,0.5 -0.3672,0.5 -0.3672,1.4376 0,0.9531 0.3672,1.4531 0.3672,0.5 1.0547,0.5 0.6875,0 1.0547,-0.5 0.3672,-0.5 0.3672,-1.4531 0,-0.9376 -0.3672,-1.4376 -0.3672,-0.5 -1.0547,-0.5 z m 0,-1.5 q 1.7031,0 2.6562,0.9141 0.9532,0.9141 0.9532,2.5235 0,1.625 -0.9532,2.539 -0.9531,0.9141 -2.6562,0.9141 -1.6875,0 -2.6484,-0.9141 -0.961,-0.914 -0.961,-2.539 0,-1.6094 0.961,-2.5235 0.9609,-0.9141 2.6484,-0.9141 z m 9.3947,1.1094 V -9.125 H 15.629 V 0 h -2.1093 v -0.9531 q -0.4219,0.5781 -0.9453,0.8515 -0.5235,0.2735 -1.211,0.2735 -1.2187,0 -1.9922,-0.9688 -0.7734,-0.9687 -0.7734,-2.4843 0,-1.5157 0.7734,-2.4766 0.7735,-0.961 1.9922,-0.961 0.6719,0 1.2031,0.2735 0.5313,0.2734 0.9532,0.8359 z m -1.375,4.25 q 0.6718,0 1.0234,-0.4922 0.3516,-0.4922 0.3516,-1.4296 0,-0.9376 -0.3516,-1.4297 -0.3516,-0.4922 -1.0234,-0.4922 -0.6719,0 -1.0235,0.4922 -0.3515,0.4921 -0.3515,1.4297 0,0.9374 0.3515,1.4296 0.3516,0.4922 1.0235,0.4922 z m 8.4197,-3.8594 q -0.6875,0 -1.0546,0.5 -0.3672,0.5 -0.3672,1.4376 0,0.9531 0.3672,1.4531 0.3671,0.5 1.0546,0.5 0.6875,0 1.0547,-0.5 0.3672,-0.5 0.3672,-1.4531 0,-0.9376 -0.3672,-1.4376 -0.3672,-0.5 -1.0547,-0.5 z m 0,-1.5 q 1.7032,0 2.6563,0.9141 0.9531,0.9141 0.9531,2.5235 0,1.625 -0.9531,2.539 -0.9531,0.9141 -2.6563,0.9141 -1.6875,0 -2.6484,-0.9141 -0.9609,-0.914 -0.9609,-2.539 0,-1.6094 0.9609,-2.5235 0.9609,-0.9141 2.6484,-0.9141 z m 11.0197,1.25 q 0.3906,-0.6093 0.9375,-0.9296 0.5469,-0.3204 1.2031,-0.3204 1.1407,0 1.7344,0.6954 0.5938,0.6953 0.5938,2.0234 v 4 h -2.1094 v -3.4219 q 0,-0.0781 0,-0.1562 0,-0.0781 0,-0.2344 0,-0.7031 -0.2031,-1.0156 -0.2032,-0.3125 -0.6563,-0.3125 -0.5937,0 -0.9219,0.4922 -0.3281,0.4922 -0.3437,1.4296 V 0 h -2.1094 v -3.4219 q 0,-1.0937 -0.1875,-1.4062 -0.1875,-0.3125 -0.6719,-0.3125 -0.5937,0 -0.9218,0.4922 -0.3282,0.4922 -0.3282,1.414 V 0 h -2.1093 v -6.5625 h 2.1093 v 0.9531 q 0.3907,-0.5468 0.8907,-0.8281 0.5,-0.2813 1.0937,-0.2813 0.6875,0 1.2109,0.3282 0.5235,0.3281 0.7891,0.9218 z"
         id="path131"
         inkscape:connector-curvature="0" />
    </g>
    <g
       transform="translate(140,15)"
       style="font-weight:bold;font-size:14.66670036px;font-family:SansSerif;color-interpolation:linearRGB;color-rendering:optimizeQuality;image-rendering:optimizeQuality;text-rendering:geometricPrecision"
       id="g137">
      <path
         style="stroke:none"
         d="m 1.5938,-7.2344 h 9.3906 v 1.7188 H 1.5938 Z m 0,3.3438 h 9.3906 v 1.7344 H 1.5938 Z m 16.3428,5.875 h -2.1719 q -1.125,-1.8125 -1.6562,-3.4453 -0.5313,-1.6329 -0.5313,-3.2266 0,-1.6094 0.5313,-3.2578 0.5312,-1.6485 1.6562,-3.4297 h 2.1719 q -0.9375,1.7344 -1.4063,3.3906 -0.4687,1.6563 -0.4687,3.2813 0,1.6093 0.4609,3.2734 0.461,1.6641 1.4141,3.4141 z m 7.9483,-7.4688 q 0,-2.0468 -0.3906,-2.8828 -0.3906,-0.8359 -1.2969,-0.8359 -0.9062,0 -1.2968,0.8359 -0.3907,0.836 -0.3907,2.8828 0,2.0782 0.3907,2.9297 0.3906,0.8516 1.2968,0.8516 0.9063,0 1.2969,-0.8516 0.3906,-0.8515 0.3906,-2.9297 z m 2.8125,0.0313 q 0,2.7187 -1.1718,4.1953 -1.1719,1.4766 -3.3282,1.4766 -2.1562,0 -3.3281,-1.4766 -1.1719,-1.4766 -1.1719,-4.1953 0,-2.7344 1.1719,-4.211 1.1719,-1.4765 3.3281,-1.4765 2.1563,0 3.3282,1.4765 1.1718,1.4766 1.1718,4.211 z m 2.0104,2.625 h 2.6406 V 0 h -2.6406 z m 5.6301,-8.1094 h 7 v 2.0781 h -4.75 v 1.6875 q 0.3125,-0.0937 0.6407,-0.1406 0.3281,-0.0469 0.6718,-0.0469 2,0 3.1172,1 1.1172,1 1.1172,2.7969 0,1.7656 -1.2109,2.7734 -1.211,1.0079 -3.3672,1.0079 -0.9375,0 -1.8438,-0.1797 -0.9062,-0.1797 -1.8125,-0.5547 v -2.2188 q 0.8907,0.5156 1.6953,0.7735 0.8047,0.2578 1.5079,0.2578 1.0312,0 1.6171,-0.5 0.586,-0.5 0.586,-1.3594 0,-0.875 -0.586,-1.3672 -0.5859,-0.4922 -1.6171,-0.4922 -0.6094,0 -1.2969,0.1563 -0.6875,0.1562 -1.4688,0.4844 z m 10.1354,8.1094 h 2.6406 v 2.2343 L 47.3014,2.125 h -1.5625 l 0.7344,-2.7188 z m 10.9426,-2.6563 q 0,-2.0468 -0.3906,-2.8828 -0.3906,-0.8359 -1.2969,-0.8359 -0.9062,0 -1.2969,0.8359 -0.3906,0.836 -0.3906,2.8828 0,2.0782 0.3906,2.9297 0.3907,0.8516 1.2969,0.8516 0.9063,0 1.2969,-0.8516 0.3906,-0.8515 0.3906,-2.9297 z m 2.8125,0.0313 q 0,2.7187 -1.1719,4.1953 -1.1718,1.4766 -3.3281,1.4766 -2.1562,0 -3.3281,-1.4766 -1.1719,-1.4766 -1.1719,-4.1953 0,-2.7344 1.1719,-4.211 1.1719,-1.4765 3.3281,-1.4765 2.1563,0 3.3281,1.4765 1.1719,1.4766 1.1719,4.211 z m 2.0104,2.625 h 2.6406 V 0 h -2.6406 z m 10.9426,-2.6563 q 0,-2.0468 -0.3906,-2.8828 -0.3906,-0.8359 -1.2969,-0.8359 -0.9062,0 -1.2969,0.8359 -0.3906,0.836 -0.3906,2.8828 0,2.0782 0.3906,2.9297 0.3907,0.8516 1.2969,0.8516 0.9063,0 1.2969,-0.8516 0.3906,-0.8515 0.3906,-2.9297 z m 2.8125,0.0313 q 0,2.7187 -1.1719,4.1953 -1.1718,1.4766 -3.3281,1.4766 -2.1562,0 -3.3281,-1.4766 -1.1719,-1.4766 -1.1719,-4.1953 0,-2.7344 1.1719,-4.211 1.1719,-1.4765 3.3281,-1.4765 2.1563,0 3.3281,1.4765 1.1719,1.4766 1.1719,4.211 z m 2.2447,3.5 h 2.4844 v -7.0625 l -2.5625,0.5312 v -1.9218 l 2.5469,-0.5313 h 2.6875 v 8.9844 h 2.4843 V 0 h -7.6406 z m 9.6353,3.9375 q 0.9375,-1.75 1.4063,-3.4141 0.4687,-1.6641 0.4687,-3.2734 0,-1.625 -0.4687,-3.2813 -0.4688,-1.6562 -1.4063,-3.3906 h 2.1719 q 1.1094,1.7812 1.6485,3.4297 0.539,1.6484 0.539,3.2578 0,1.5937 -0.5312,3.2266 -0.5313,1.6328 -1.6563,3.4453 z m 7.1672,-4.8125 h 2.6562 v 2.2343 L 95.8692,2.125 h -1.5625 l 0.7344,-2.7188 z m 0,-5.375 h 2.6562 v 2.8281 h -2.6562 z"
         id="path135"
         inkscape:connector-curvature="0" />
    </g>
    <g
       transform="translate(245,15)"
       style="font-weight:bold;font-size:14.66670036px;font-family:mwb_cmr10;color-interpolation:linearRGB;color-rendering:optimizeQuality;image-rendering:optimizeQuality;text-rendering:geometricPrecision"
       id="g141">
      <path
         style="stroke:none"
         d="m 0.9844,0 q -0.1406,0 -0.1406,-0.1719 0,-0.0625 0.0468,-0.0937 L 4.5781,-4.4688 0.8906,-9.7812 Q 0.8438,-9.8281 0.8438,-9.8594 v -0.25 q 0,-0.0468 0.0468,-0.0937 0.0469,-0.0469 0.0938,-0.0469 h 9.5781 l 0.4063,3.4375 H 9.5469 Q 9.4062,-7.875 9.1094,-8.4688 8.8125,-9.0625 8.3281,-9.3359 7.8438,-9.6094 7.2266,-9.6641 6.6094,-9.7188 5.4062,-9.7188 H 3.625 l 3.125,4.4844 q -0.1406,0.1094 -0.1406,0.1094 0,0.0781 0.1406,0.0938 L 2.9531,-0.6875 H 5.375 q 1.1875,0 1.8125,-0.0625 0.625,-0.0625 1.125,-0.3281 0.5,-0.2657 0.8047,-0.8672 0.3047,-0.6016 0.4297,-1.6641 h 1.4219 L 10.5625,0 Z"
         id="path139"
         inkscape:connector-curvature="0" />
    </g>
    <g
       transform="translate(257,22)"
       style="font-weight:bold;font-size:11.73330021px;font-family:SansSerif;color-interpolation:linearRGB;color-rendering:optimizeQuality;image-rendering:optimizeQuality;text-rendering:geometricPrecision"
       id="g145">
      <path
         style="stroke:none"
         d="M 1.0156,-9.125 H 3.1094 V 0 H 1.0156 Z m 9.3138,2.7656 v 1.7188 Q 9.9075,-4.9375 9.47,-5.0781 9.0325,-5.2188 8.5794,-5.2188 q -0.875,0 -1.3672,0.5079 -0.4922,0.5078 -0.4922,1.4297 0,0.9218 0.4922,1.4374 0.4922,0.5157 1.3672,0.5157 0.4844,0 0.9297,-0.1485 0.4453,-0.1484 0.8203,-0.4296 v 1.7187 q -0.5,0.1719 -1,0.2656 -0.5,0.0938 -1.0156,0.0938 -1.7813,0 -2.7813,-0.9141 -1,-0.914 -1,-2.539 0,-1.625 1,-2.5313 1,-0.9063 2.7813,-0.9063 0.5156,0 1.0156,0.086 0.5,0.0859 1,0.2734 z"
         id="path143"
         inkscape:connector-curvature="0" />
    </g>
    <g
       transform="translate(268,15)"
       style="font-weight:bold;font-size:14.66670036px;font-family:SansSerif;color-interpolation:linearRGB;color-rendering:optimizeQuality;image-rendering:optimizeQuality;text-rendering:geometricPrecision"
       id="g149">
      <path
         style="stroke:none"
         d="m 1.5938,-7.2344 h 9.3906 v 1.7188 H 1.5938 Z m 0,3.3438 h 9.3906 v 1.7344 H 1.5938 Z m 16.3428,5.875 h -2.1719 q -1.125,-1.8125 -1.6562,-3.4453 -0.5313,-1.6329 -0.5313,-3.2266 0,-1.6094 0.5313,-3.2578 0.5312,-1.6485 1.6562,-3.4297 h 2.1719 q -0.9375,1.7344 -1.4063,3.3906 -0.4687,1.6563 -0.4687,3.2813 0,1.6093 0.4609,3.2734 0.461,1.6641 1.4141,3.4141 z m 7.9483,-7.4688 q 0,-2.0468 -0.3906,-2.8828 -0.3906,-0.8359 -1.2969,-0.8359 -0.9062,0 -1.2968,0.8359 -0.3907,0.836 -0.3907,2.8828 0,2.0782 0.3907,2.9297 0.3906,0.8516 1.2968,0.8516 0.9063,0 1.2969,-0.8516 0.3906,-0.8515 0.3906,-2.9297 z m 2.8125,0.0313 q 0,2.7187 -1.1718,4.1953 -1.1719,1.4766 -3.3282,1.4766 -2.1562,0 -3.3281,-1.4766 -1.1719,-1.4766 -1.1719,-4.1953 0,-2.7344 1.1719,-4.211 1.1719,-1.4765 3.3281,-1.4765 2.1563,0 3.3282,1.4765 1.1718,1.4766 1.1718,4.211 z m 2.0104,2.625 h 2.6406 V 0 h -2.6406 z m 10.9426,-2.6563 q 0,-2.0468 -0.3906,-2.8828 -0.3906,-0.8359 -1.2969,-0.8359 -0.9062,0 -1.2968,0.8359 -0.3907,0.836 -0.3907,2.8828 0,2.0782 0.3907,2.9297 0.3906,0.8516 1.2968,0.8516 0.9063,0 1.2969,-0.8516 0.3906,-0.8515 0.3906,-2.9297 z m 2.8125,0.0313 q 0,2.7187 -1.1718,4.1953 -1.1719,1.4766 -3.3282,1.4766 -2.1562,0 -3.3281,-1.4766 -1.1719,-1.4766 -1.1719,-4.1953 0,-2.7344 1.1719,-4.211 1.1719,-1.4765 3.3281,-1.4765 2.1563,0 3.3282,1.4765 1.1718,1.4766 1.1718,4.211 z m 7.3854,-0.0313 q 0,-2.0468 -0.3907,-2.8828 -0.3906,-0.8359 -1.2968,-0.8359 -0.9063,0 -1.2969,0.8359 -0.3906,0.836 -0.3906,2.8828 0,2.0782 0.3906,2.9297 0.3906,0.8516 1.2969,0.8516 0.9062,0 1.2968,-0.8516 0.3907,-0.8515 0.3907,-2.9297 z m 2.8125,0.0313 q 0,2.7187 -1.1719,4.1953 -1.1719,1.4766 -3.3281,1.4766 -2.1563,0 -3.3282,-1.4766 -1.1718,-1.4766 -1.1718,-4.1953 0,-2.7344 1.1718,-4.211 1.1719,-1.4765 3.3282,-1.4765 2.1562,0 3.3281,1.4765 1.1719,1.4766 1.1719,4.211 z m 2.2447,3.5 h 2.4843 v -7.0625 l -2.5625,0.5312 v -1.9218 l 2.5469,-0.5313 h 2.6875 v 8.9844 h 2.4844 V 0 h -7.6406 z m 9.9634,-0.875 h 2.6407 v 2.2343 L 67.6971,2.125 h -1.5625 l 0.7343,-2.7188 z m 10.9427,-2.6563 q 0,-2.0468 -0.3906,-2.8828 -0.3907,-0.8359 -1.2969,-0.8359 -0.9063,0 -1.2969,0.8359 -0.3906,0.836 -0.3906,2.8828 0,2.0782 0.3906,2.9297 0.3906,0.8516 1.2969,0.8516 0.9062,0 1.2969,-0.8516 0.3906,-0.8515 0.3906,-2.9297 z m 2.8125,0.0313 q 0,2.7187 -1.1719,4.1953 -1.1719,1.4766 -3.3281,1.4766 -2.1563,0 -3.3281,-1.4766 -1.1719,-1.4766 -1.1719,-4.1953 0,-2.7344 1.1719,-4.211 1.1718,-1.4765 3.3281,-1.4765 2.1562,0 3.3281,1.4765 1.1719,1.4766 1.1719,4.211 z m 2.0103,2.625 H 85.275 V 0 h -2.6406 z m 10.9427,-2.6563 q 0,-2.0468 -0.3907,-2.8828 -0.3906,-0.8359 -1.2968,-0.8359 -0.9063,0 -1.2969,0.8359 -0.3906,0.836 -0.3906,2.8828 0,2.0782 0.3906,2.9297 0.3906,0.8516 1.2969,0.8516 0.9062,0 1.2968,-0.8516 0.3907,-0.8515 0.3907,-2.9297 z m 2.8125,0.0313 q 0,2.7187 -1.1719,4.1953 -1.1719,1.4766 -3.3281,1.4766 -2.1563,0 -3.3282,-1.4766 -1.1718,-1.4766 -1.1718,-4.1953 0,-2.7344 1.1718,-4.211 1.1719,-1.4765 3.3282,-1.4765 2.1562,0 3.3281,1.4765 1.1719,1.4766 1.1719,4.211 z m 7.3853,-0.0313 q 0,-2.0468 -0.3906,-2.8828 -0.3906,-0.8359 -1.2969,-0.8359 -0.9062,0 -1.2969,0.8359 -0.3906,0.836 -0.3906,2.8828 0,2.0782 0.3906,2.9297 0.3907,0.8516 1.2969,0.8516 0.9063,0 1.2969,-0.8516 0.3906,-0.8515 0.3906,-2.9297 z m 2.8125,0.0313 q 0,2.7187 -1.1719,4.1953 -1.1718,1.4766 -3.3281,1.4766 -2.1562,0 -3.3281,-1.4766 -1.1719,-1.4766 -1.1719,-4.1953 0,-2.7344 1.1719,-4.211 1.1719,-1.4765 3.3281,-1.4765 2.1563,0 3.3281,1.4765 1.1719,1.4766 1.1719,4.211 z m 7.3853,-0.0313 q 0,-2.0468 -0.3906,-2.8828 -0.3906,-0.8359 -1.2969,-0.8359 -0.9062,0 -1.2968,0.8359 -0.3907,0.836 -0.3907,2.8828 0,2.0782 0.3907,2.9297 0.3906,0.8516 1.2968,0.8516 0.9063,0 1.2969,-0.8516 0.3906,-0.8515 0.3906,-2.9297 z m 2.8125,0.0313 q 0,2.7187 -1.1718,4.1953 -1.1719,1.4766 -3.3282,1.4766 -2.1562,0 -3.3281,-1.4766 -1.1719,-1.4766 -1.1719,-4.1953 0,-2.7344 1.1719,-4.211 1.1719,-1.4765 3.3281,-1.4765 2.1563,0 3.3282,1.4765 1.1718,1.4766 1.1718,4.211 z m 2.2447,3.5 h 2.4844 v -7.0625 l -2.5625,0.5312 v -1.9218 l 2.5469,-0.5313 h 2.6875 v 8.9844 h 2.4844 V 0 h -7.6407 z m 9.6354,3.9375 q 0.9375,-1.75 1.4062,-3.4141 0.4688,-1.6641 0.4688,-3.2734 0,-1.625 -0.4688,-3.2813 -0.4687,-1.6562 -1.4062,-3.3906 h 2.1718 q 1.1094,1.7812 1.6485,3.4297 0.539,1.6484 0.539,3.2578 0,1.5937 -0.5312,3.2266 -0.5313,1.6328 -1.6563,3.4453 z m 7.1671,-4.8125 h 2.6562 v 2.2343 l -1.8281,2.7188 h -1.5625 l 0.7344,-2.7188 z m 0,-5.375 h 2.6562 v 2.8281 h -2.6562 z m 20.9167,3.6875 q -0.5157,0 -0.8047,0.4531 -0.2891,0.4531 -0.2891,1.2813 0,0.8437 0.2813,1.2968 0.2812,0.4532 0.8125,0.4532 0.5312,0 0.8047,-0.4532 0.2734,-0.4531 0.2734,-1.2968 0,-0.8282 -0.2813,-1.2813 -0.2812,-0.4531 -0.7968,-0.4531 z m 0,-1.2344 q 1.3593,0 2.1406,0.7969 0.7812,0.7969 0.7812,2.1719 0,1.3906 -0.7812,2.1953 -0.7813,0.8047 -2.1406,0.8047 -1.3594,0 -2.1485,-0.8047 -0.789,-0.8047 -0.789,-2.1953 0,-1.375 0.789,-2.1719 0.7891,-0.7969 2.1485,-0.7969 z m -6.7188,5.9688 h -1.625 l 6.8438,-11.3594 h 1.625 z m -1.5,-11.3594 q 1.3594,0 2.1406,0.7968 0.7813,0.7969 0.7813,2.1876 0,1.375 -0.7813,2.1796 -0.7812,0.8047 -2.1406,0.8047 -1.3594,0 -2.1406,-0.8047 -0.7813,-0.8046 -0.7813,-2.1796 0,-1.3907 0.7813,-2.1876 0.7812,-0.7968 2.1406,-0.7968 z m 0,1.2344 q -0.5312,0 -0.8125,0.4531 -0.2812,0.4531 -0.2812,1.2969 0,0.8437 0.2812,1.2968 0.2813,0.4532 0.8125,0.4532 0.5313,0 0.8125,-0.4532 0.2813,-0.4531 0.2813,-1.2968 0,-0.8438 -0.2891,-1.2969 -0.2891,-0.4531 -0.8047,-0.4531 z"
         id="path147"
         inkscape:connector-curvature="0" />
    </g>
    <g
       transform="translate(428,22)"
       style="font-weight:bold;font-size:11.73330021px;font-family:SansSerif;color-interpolation:linearRGB;color-rendering:optimizeQuality;image-rendering:optimizeQuality;text-rendering:geometricPrecision"
       id="g153">
      <path
         style="stroke:none"
         d="M 1.0156,-9.125 H 3.1094 V 0 H 1.0156 Z m 9.3138,2.7656 v 1.7188 Q 9.9075,-4.9375 9.47,-5.0781 9.0325,-5.2188 8.5794,-5.2188 q -0.875,0 -1.3672,0.5079 -0.4922,0.5078 -0.4922,1.4297 0,0.9218 0.4922,1.4374 0.4922,0.5157 1.3672,0.5157 0.4844,0 0.9297,-0.1485 0.4453,-0.1484 0.8203,-0.4296 v 1.7187 q -0.5,0.1719 -1,0.2656 -0.5,0.0938 -1.0156,0.0938 -1.7813,0 -2.7813,-0.9141 -1,-0.914 -1,-2.539 0,-1.625 1,-2.5313 1,-0.9063 2.7813,-0.9063 0.5156,0 1.0156,0.086 0.5,0.0859 1,0.2734 z"
         id="path151"
         inkscape:connector-curvature="0" />
    </g>
    <g
       transform="translate(439,15)"
       style="font-weight:bold;font-size:14.66670036px;font-family:SansSerif;color-interpolation:linearRGB;color-rendering:optimizeQuality;image-rendering:optimizeQuality;text-rendering:geometricPrecision"
       id="g157">
      <path
         style="stroke:none"
         d="m 1.5938,-7.2344 h 9.3906 v 1.7188 H 1.5938 Z m 0,3.3438 h 9.3906 v 1.7344 H 1.5938 Z m 16.2022,-4.7188 -3.0782,4.5782 h 3.0782 z m -0.4688,-2.3281 h 3.1406 v 6.9063 h 1.5625 V -2 H 20.4678 V 0 H 17.796 v -2 h -4.8438 v -2.4062 z m 12.0572,5.4531 q 0,-2.0468 -0.3906,-2.8828 -0.3906,-0.8359 -1.2969,-0.8359 -0.9062,0 -1.2969,0.8359 -0.3906,0.836 -0.3906,2.8828 0,2.0782 0.3906,2.9297 0.3907,0.8516 1.2969,0.8516 0.9063,0 1.2969,-0.8516 0.3906,-0.8515 0.3906,-2.9297 z m 2.8125,0.0313 q 0,2.7187 -1.1719,4.1953 -1.1718,1.4766 -3.3281,1.4766 -2.1562,0 -3.3281,-1.4766 -1.1719,-1.4766 -1.1719,-4.1953 0,-2.7344 1.1719,-4.211 1.1719,-1.4765 3.3281,-1.4765 2.1563,0 3.3281,1.4765 1.1719,1.4766 1.1719,4.211 z m 4.3385,-5.4844 h 1.625 L 34.301,1.3906 h -1.625 z m 3.0873,0 h 7 v 2.0781 h -4.75 v 1.6875 q 0.3125,-0.0937 0.6406,-0.1406 0.3282,-0.0469 0.6719,-0.0469 2,0 3.1172,1 1.1172,1 1.1172,2.7969 0,1.7656 -1.211,2.7734 -1.2109,1.0079 -3.3671,1.0079 -0.9375,0 -1.8438,-0.1797 -0.9062,-0.1797 -1.8125,-0.5547 v -2.2188 q 0.8906,0.5156 1.6953,0.7735 0.8047,0.2578 1.5078,0.2578 1.0313,0 1.6172,-0.5 0.586,-0.5 0.586,-1.3594 0,-0.875 -0.586,-1.3672 -0.5859,-0.4922 -1.6172,-0.4922 -0.6093,0 -1.2968,0.1563 -0.6875,0.1562 -1.4688,0.4844 z m 15.5103,5.4531 q 0,-2.0468 -0.3906,-2.8828 -0.3906,-0.8359 -1.2969,-0.8359 -0.9062,0 -1.2968,0.8359 -0.3907,0.836 -0.3907,2.8828 0,2.0782 0.3907,2.9297 0.3906,0.8516 1.2968,0.8516 0.9063,0 1.2969,-0.8516 0.3906,-0.8515 0.3906,-2.9297 z m 2.8125,0.0313 q 0,2.7187 -1.1718,4.1953 -1.1719,1.4766 -3.3282,1.4766 -2.1562,0 -3.3281,-1.4766 -1.1719,-1.4766 -1.1719,-4.1953 0,-2.7344 1.1719,-4.211 1.1719,-1.4765 3.3281,-1.4765 2.1563,0 3.3282,1.4765 1.1718,1.4766 1.1718,4.211 z"
         id="path155"
         inkscape:connector-curvature="0" />
    </g>
    <g
       style="color-interpolation:linearRGB;stroke-width:2;stroke-linecap:butt;stroke-linejoin:round;color-rendering:optimizeQuality;image-rendering:optimizeQuality;text-rendering:geometricPrecision"
       id="g165">
      <path
         d="m 280.4231,291.9236 16.4691,-0.5669 16.3046,-1.6954 15.9771,-2.8067 15.49,-3.89 14.8482,-4.9345 14.0578,-5.9297 13.1273,-6.8656 12.0653,-7.7329 10.883,-8.523 9.5918,-9.2278 8.2048,-9.8406 6.7358,-10.3549 5.1996,-10.7659 3.6114,-11.0692 1.9871,-11.2619 0.3428,-11.3421 -1.3046,-11.3091 -2.9393,-11.1629 -4.5444,-10.9053 -6.1042,-10.5386 -7.6029,-10.0668 -9.0258,-9.4943 -10.3584,-8.8269 -11.5876,-8.0714 -12.7009,-7.2351 -13.6874,-6.3267 -14.537,-5.355 -15.2415,-4.3298 -15.7937,-3.2613 -16.188,-2.1603 -16.4206,-1.0376 -16.4892,0.0953 -16.3929,1.2275 -16.1329,2.3472 -15.7117,3.4435 -15.1336,4.5055 -14.4041,5.5224 -13.5308,6.4841 -12.5223,7.3811 -11.3887,8.2043 -10.1412,8.9455 -8.7925,9.5973 -7.3558,10.1533 -5.8458,10.6078 -4.2772,10.9563 -2.666,11.1954 -1.0281,11.3225 0.62,11.3366 2.262,11.2373"
         style="fill:none;fill-rule:evenodd"
         id="path159"
         inkscape:connector-curvature="0" />
      <path
         d="m 280.4231,291.9236 27.6183,-4.1377 28.9501,5.8925 22.0722,-5.8446 6.6216,-16.7778 27.9641,-15.1879 34.1331,-4.6819 5.2658,-3.3625 15.5603,-9.0379 24.2355,-5.2558 4.5456,-20.3645 -16.3945,-2.2038 -2.0669,-7.0209 7.1005,1.5959 -6.6977,-9.1084 -3.959,-16.4236 11.1021,-7.7005 -0.3909,-8.8985 -3.272,-9.7117 -8.4715,-21.5315 6.0065,2.5133 0.4216,-15.0496 0.5857,-12.6013 15.085,-9.4405 2.7281,-16.7028 -0.909,3.5787 -21.9281,-3.7798 -7.5657,-2.363 -4.3669,3.5392 -4.2189,-14.0527 0.2555,-11.5303 -23.7966,-2.3695 -1.2831,-1.6542 -1.7721,8.7912 -19.8273,-1.0564 -2.9905,6.0757 -17.7148,9.3138 -1.8761,12.6653 -13.9745,7.8794 -24.8201,9.9607 -7.0089,-2.888 12.8747,12.2602 -7.2568,16.1425 6.8106,17.6491 -24.042,5.3218 -1.9693,3.8884 -4.2123,3.1224 -1.3131,15.9971 3.3475,18.8577 3.8275,8.9287"
         style="fill:none;fill-rule:evenodd;stroke:#ff0000"
         id="path161"
         inkscape:connector-curvature="0" />
      <path
         d="m 280.4231,291.9236 17.2233,-0.345 19.8939,3.1714 11.9246,-8.29 -4.9778,-8.6338 18.7309,-6.1679 33.3672,-1.417 10.3057,-4.8957 6.7462,-12.2557 16.3898,-6.0256 22.6198,-11.8709 -4.7983,-5.0511 0.4831,-14.0915 11.1058,-7.5219 4.1644,-10.7737 2.5347,-12.6255 7.8797,-13.7354 -3.5963,-13.7969 -7.5414,-6.2615 -4.2474,-8.446 -7.6195,-2.1864 -11.4224,-20.0144 -13.9033,-12.5325 -1.2474,-6.6077 -1.8226,-19.0717 -10.1933,0.541 -30.2292,-7.6435 -13.4798,-5.646 -11.5338,0.3784 -17.0431,-2.2954 -4.6273,-9.7548 -29.4634,-1.4047 -17.5014,8.4708 -19.4993,2.9302 -10.0261,0.6543 -15.1171,3.3215 -15.6393,4.6489 -15.0033,4.9522 -15.9994,7.2693 -10.081,6.8323 -9.8203,6.0011 -9.852,10.3752 -12.8757,6.8661 -4.7572,13.7495 -4.7888,10.5225 -3.7881,8.0979 -2.9651,15.3781 -4.2173,8.8254 -3.2812,14.3132 8.7157,8.3506"
         style="fill:none;fill-rule:evenodd;stroke:#0000ff"
         id="path163"
         inkscape:connector-curvature="0" />
    </g>
    <g
       style="color-interpolation:sRGB;fill:#ffffff;stroke:#ffffff;color-rendering:optimizeSpeed;image-rendering:optimizeSpeed;shape-rendering:crispEdges;text-rendering:optimizeSpeed"
       id="g169">
      <path
         style="stroke:none"
         d="m 186,295 v -62 h -85 v 62 z"
         id="path167"
         inkscape:connector-curvature="0" />
    </g>
    <g
       transform="translate(148,242.5)"
       style="font-family:SansSerif;color-interpolation:linearRGB;color-rendering:optimizeQuality;image-rendering:optimizeQuality;text-rendering:geometricPrecision"
       id="g173">
      <path
         style="stroke:none"
         d="m 2.2031,-3.9219 v 1.8594 h 2.2188 v 0.8437 H 2.2031 v 3.5626 q 0,0.7968 0.2188,1.0234 0.2187,0.2266 0.8906,0.2266 H 4.4219 V 4.5 H 3.3125 Q 2.0625,4.5 1.5859,4.0312 1.1094,3.5625 1.1094,2.3438 V -1.2188 H 0.3281 v -0.8437 h 0.7813 v -1.8594 z m 7.4395,2.8594 Q 9.4551,-1.1562 9.2441,-1.2109 9.0332,-1.2656 8.7676,-1.2656 q -0.9063,0 -1.3985,0.5937 Q 6.877,-0.0781 6.877,1.0469 V 4.5 H 5.7988 V -2.0625 H 6.877 v 1.0156 q 0.3437,-0.5937 0.8906,-0.8828 0.5469,-0.2891 1.3281,-0.2891 0.1094,0 0.2422,0.0157 0.1328,0.0156 0.2891,0.0469 z m 1.0117,2.9687 v -3.9687 h 1.0781 V 1.875 q 0,0.9219 0.3672,1.3906 0.3672,0.4688 1.0859,0.4688 0.875,0 1.3829,-0.5547 0.5078,-0.5547 0.5078,-1.5235 v -3.7187 h 1.0781 V 4.5 H 15.0762 V 3.4844 q -0.3907,0.6094 -0.9063,0.8984 -0.5156,0.2891 -1.2031,0.2891 -1.1406,0 -1.7266,-0.7031 -0.5859,-0.7032 -0.5859,-2.0626 z m 8.793,-5.8281 v 1.8594 h 2.2187 v 0.8437 h -2.2187 v 3.5626 q 0,0.7968 0.2187,1.0234 0.2188,0.2266 0.8906,0.2266 H 21.666 V 4.5 h -1.1094 q -1.25,0 -1.7265,-0.4688 -0.4766,-0.4687 -0.4766,-1.6874 v -3.5626 h -0.7812 v -0.8437 h 0.7812 V -3.9219 Z M 28.543,0.5312 V 4.5 H 27.4648 V 0.5781 q 0,-0.9375 -0.3671,-1.3984 -0.3672,-0.4609 -1.086,-0.4609 -0.875,0 -1.3828,0.5546 -0.5078,0.5547 -0.5078,1.5235 V 4.5 H 23.043 v -9.125 h 1.0781 v 3.5781 q 0.3906,-0.5937 0.9141,-0.8828 0.5234,-0.2891 1.2109,-0.2891 1.125,0 1.7109,0.6954 0.586,0.6953 0.586,2.0546 z"
         id="path171"
         inkscape:connector-curvature="0" />
    </g>
    <g
       style="color-interpolation:linearRGB;stroke-width:2;stroke-linecap:butt;stroke-linejoin:round;color-rendering:optimizeQuality;image-rendering:optimizeQuality;text-rendering:geometricPrecision"
       id="g177">
      <line
         y2="242.5"
         style="fill:none"
         x1="105"
         x2="145"
         y1="242.5"
         id="line175" />
    </g>
    <g
       transform="translate(148,263)"
       style="font-family:SansSerif;color-interpolation:linearRGB;color-rendering:optimizeQuality;image-rendering:optimizeQuality;text-rendering:geometricPrecision"
       id="g181">
      <path
         style="stroke:none"
         d="M 6.5938,-6.5625 4.2188,-3.375 6.7031,0 H 5.4375 L 3.5312,-2.5781 1.625,0 H 0.3438 l 2.5468,-3.4375 -2.3281,-3.125 h 1.2656 l 1.75,2.3437 1.7344,-2.3437 z m 7.1015,2.5937 V 0 h -1.0781 v -3.9219 q 0,-0.9375 -0.3672,-1.3984 -0.3672,-0.4609 -1.0859,-0.4609 -0.875,0 -1.3829,0.5546 -0.5078,0.5547 -0.5078,1.5235 V 0 H 8.1953 v -9.125 h 1.0781 v 3.5781 q 0.3907,-0.5937 0.9141,-0.8828 0.5234,-0.2891 1.2109,-0.2891 1.125,0 1.711,0.6954 0.5859,0.6953 0.5859,2.0546 z m 5.1211,0.6719 q -1.2969,0 -1.8047,0.2969 -0.5078,0.2969 -0.5078,1.0156 0,0.5782 0.3828,0.9141 0.3828,0.3359 1.0235,0.3359 0.9062,0 1.4453,-0.6328 0.539,-0.6328 0.539,-1.6953 V -3.2969 Z M 20.9727,-3.75 V 0 h -1.0782 v -1 q -0.375,0.5938 -0.9218,0.8828 -0.5469,0.2891 -1.3438,0.2891 -1.0156,0 -1.6094,-0.5703 -0.5937,-0.5704 -0.5937,-1.5078 0,-1.1094 0.7422,-1.6719 0.7422,-0.5625 2.2109,-0.5625 h 1.5156 V -4.25 q 0,-0.75 -0.4922,-1.1562 -0.4921,-0.4063 -1.3671,-0.4063 -0.5625,0 -1.1016,0.1406 -0.5391,0.1407 -1.0234,0.4063 v -1 q 0.5937,-0.2344 1.1484,-0.3438 0.5547,-0.1094 1.0859,-0.1094 1.4219,0 2.125,0.7344 0.7032,0.7344 0.7032,2.2344 z m 3.291,-4.6719 v 1.8594 h 2.2187 v 0.8437 h -2.2187 v 3.5626 q 0,0.7968 0.2187,1.0234 0.2188,0.2266 0.8906,0.2266 h 1.1094 V 0 H 25.373 q -1.25,0 -1.7265,-0.4688 -0.4766,-0.4687 -0.4766,-1.6874 v -3.5626 h -0.7812 v -0.8437 h 0.7812 v -1.8594 z"
         id="path179"
         inkscape:connector-curvature="0" />
    </g>
    <g
       transform="translate(175,269)"
       style="font-size:9.60000038px;font-family:SansSerif;color-interpolation:linearRGB;color-rendering:optimizeQuality;image-rendering:optimizeQuality;text-rendering:geometricPrecision"
       id="g185">
      <path
         style="stroke:none"
         d="m 3.1719,-6.6406 q -0.75,0 -1.1328,0.75 -0.3829,0.75 -0.3829,2.25 0,1.5 0.3829,2.25 0.3828,0.75 1.1328,0.75 0.7812,0 1.164,-0.75 0.3829,-0.75 0.3829,-2.25 0,-1.5 -0.3829,-2.25 -0.3828,-0.75 -1.164,-0.75 z m 0,-0.7813 q 1.2343,0 1.8828,0.9688 0.6484,0.9687 0.6484,2.8125 0,1.8437 -0.6484,2.8125 -0.6485,0.9687 -1.8828,0.9687 -1.2188,0 -1.8672,-0.9687 -0.6485,-0.9688 -0.6485,-2.8125 0,-1.8438 0.6485,-2.8125 0.6484,-0.9688 1.8672,-0.9688 z"
         id="path183"
         inkscape:connector-curvature="0" />
    </g>
    <g
       style="color-interpolation:linearRGB;fill:#ff0000;stroke:#ff0000;stroke-width:2;stroke-linecap:butt;stroke-linejoin:round;color-rendering:optimizeQuality;image-rendering:optimizeQuality;text-rendering:geometricPrecision"
       id="g189">
      <line
         y2="261"
         style="fill:none"
         x1="105"
         x2="145"
         y1="261"
         id="line187" />
    </g>
    <g
       transform="translate(148,285)"
       style="font-family:SansSerif;color-interpolation:linearRGB;color-rendering:optimizeQuality;image-rendering:optimizeQuality;text-rendering:geometricPrecision"
       id="g193">
      <path
         style="stroke:none"
         d="M 6.5938,-6.5625 4.2188,-3.375 6.7031,0 H 5.4375 L 3.5312,-2.5781 1.625,0 H 0.3438 l 2.5468,-3.4375 -2.3281,-3.125 h 1.2656 l 1.75,2.3437 1.7344,-2.3437 z m 7.1015,2.5937 V 0 h -1.0781 v -3.9219 q 0,-0.9375 -0.3672,-1.3984 -0.3672,-0.4609 -1.0859,-0.4609 -0.875,0 -1.3829,0.5546 -0.5078,0.5547 -0.5078,1.5235 V 0 H 8.1953 v -9.125 h 1.0781 v 3.5781 q 0.3907,-0.5937 0.9141,-0.8828 0.5234,-0.2891 1.2109,-0.2891 1.125,0 1.711,0.6954 0.5859,0.6953 0.5859,2.0546 z m 5.1211,0.6719 q -1.2969,0 -1.8047,0.2969 -0.5078,0.2969 -0.5078,1.0156 0,0.5782 0.3828,0.9141 0.3828,0.3359 1.0235,0.3359 0.9062,0 1.4453,-0.6328 0.539,-0.6328 0.539,-1.6953 V -3.2969 Z M 20.9727,-3.75 V 0 h -1.0782 v -1 q -0.375,0.5938 -0.9218,0.8828 -0.5469,0.2891 -1.3438,0.2891 -1.0156,0 -1.6094,-0.5703 -0.5937,-0.5704 -0.5937,-1.5078 0,-1.1094 0.7422,-1.6719 0.7422,-0.5625 2.2109,-0.5625 h 1.5156 V -4.25 q 0,-0.75 -0.4922,-1.1562 -0.4921,-0.4063 -1.3671,-0.4063 -0.5625,0 -1.1016,0.1406 -0.5391,0.1407 -1.0234,0.4063 v -1 q 0.5937,-0.2344 1.1484,-0.3438 0.5547,-0.1094 1.0859,-0.1094 1.4219,0 2.125,0.7344 0.7032,0.7344 0.7032,2.2344 z m 3.291,-4.6719 v 1.8594 h 2.2187 v 0.8437 h -2.2187 v 3.5626 q 0,0.7968 0.2187,1.0234 0.2188,0.2266 0.8906,0.2266 h 1.1094 V 0 H 25.373 q -1.25,0 -1.7265,-0.4688 -0.4766,-0.4687 -0.4766,-1.6874 v -3.5626 h -0.7812 v -0.8437 h 0.7812 v -1.8594 z"
         id="path191"
         inkscape:connector-curvature="0" />
    </g>
    <g
       transform="translate(175,291)"
       style="font-size:9.60000038px;font-family:SansSerif;color-interpolation:linearRGB;color-rendering:optimizeQuality;image-rendering:optimizeQuality;text-rendering:geometricPrecision"
       id="g197">
      <path
         style="stroke:none"
         d="m 3.7188,-7.5938 v 0.75 H 2.8594 q -0.4844,0 -0.6719,0.1954 Q 2,-6.4531 2,-5.9531 v 0.4843 h 1.4688 v 0.7032 H 2 V 0 H 1.0938 V -4.7656 H 0.2344 v -0.7032 h 0.8594 v -0.375 q 0,-0.9218 0.4218,-1.3359 0.4219,-0.4141 1.3438,-0.4141 z"
         id="path195"
         inkscape:connector-curvature="0" />
    </g>
    <g
       style="color-interpolation:linearRGB;fill:#0000ff;stroke:#0000ff;stroke-width:2;stroke-linecap:butt;stroke-linejoin:round;color-rendering:optimizeQuality;image-rendering:optimizeQuality;text-rendering:geometricPrecision"
       id="g201">
      <line
         y2="282.5"
         style="fill:none"
         x1="105"
         x2="145"
         y1="282.5"
         id="line199" />
    </g>
    <g
       style="color-interpolation:linearRGB;fill:#262626;stroke:#262626;stroke-width:0.66670001;stroke-linecap:butt;color-rendering:optimizeQuality;image-rendering:optimizeQuality;text-rendering:geometricPrecision"
       id="g205">
      <path
         d="m 101,295 v -62 h 85 v 62 z"
         style="fill:none;fill-rule:evenodd"
         id="path203"
         inkscape:connector-curvature="0" />
    </g>
  </g>
</svg>
